<?xml version="1.0" encoding="UTF-8" standalone="no"?><!DOCTYPE svg PUBLIC "-//W3C//DTD SVG 1.1//EN" "http://www.w3.org/Graphics/SVG/1.1/DTD/svg11.dtd"><svg width="100%" height="100%" viewBox="0 0 198 279" version="1.1" xmlns="http://www.w3.org/2000/svg" xmlns:xlink="http://www.w3.org/1999/xlink" xml:space="preserve" xmlns:serif="http://www.serif.com/" style="fill-rule:evenodd;clip-rule:evenodd;stroke-linejoin:round;stroke-miterlimit:2;"><g id="Left"><path id="_4" serif:id="4" d="M11.676,72.711l46.57,-58.79l72.356,58.79l52.708,64.306l-52.708,68.618l-73.429,58.565l-45.729,-58.565c-0.052,-0.145 -0.104,-0.29 -0.156,-0.435c-1.049,-2.971 -1.992,-5.907 -2.901,-8.912c-0.944,-2.971 -1.748,-6.012 -2.481,-9.052c-0.769,-3.041 -1.468,-6.116 -2.062,-9.192c-0.664,-3.076 -1.153,-6.221 -1.643,-9.367c-0.524,-3.181 -0.874,-6.396 -1.223,-9.646c-0.315,-3.25 -0.559,-6.501 -0.769,-9.751c-0.105,-3.25 -0.21,-6.501 -0.21,-9.786c-0,-2.272 0.035,-4.474 0.14,-6.641c0.035,-2.167 0.14,-4.299 0.315,-6.396c0.14,-2.097 0.315,-4.089 0.489,-6.081c0.21,-1.992 0.419,-3.914 0.664,-5.802c0.245,-1.922 0.524,-3.775 0.804,-5.662c0.315,-1.887 0.629,-3.74 0.979,-5.627c0.35,-1.887 0.734,-3.81 1.153,-5.732c0.419,-1.922 0.874,-3.914 1.398,-5.942c0.489,-2.027 1.049,-4.089 1.643,-6.256c0.629,-2.167 1.328,-4.439 2.097,-6.815c0.57,-1.874 1.246,-3.811 1.994,-5.827Z" style="fill:rgb(224,224,224);fill-rule:nonzero;"/><path id="_7" serif:id="7" d="M11.445,205.634l119.158,0l-73.027,73.027c-2.413,-2.411 -4.754,-4.889 -7.037,-7.405c-3.041,-3.39 -5.907,-6.85 -8.563,-10.206c-2.621,-3.355 -4.998,-6.641 -7.2,-9.821c-2.167,-3.146 -4.159,-6.221 -6.012,-9.297c-1.852,-3.041 -3.6,-6.046 -5.278,-9.122c-1.608,-3.076 -3.181,-6.186 -4.648,-9.297c-1.503,-3.146 -2.866,-6.291 -4.124,-9.332c-1.229,-2.924 -2.269,-5.753 -3.27,-8.547Z" style="fill:rgb(232,232,232);fill-rule:nonzero;"/><path id="_5" serif:id="5" d="M130.602,72.711l66.462,66.462l-66.462,66.462l0,-132.924Z" style="fill:rgb(217,217,217);"/><path id="_1" serif:id="1" d="M57.892,0l72.711,72.711l-118.926,0c0.215,-0.579 0.436,-1.164 0.662,-1.757c0.944,-2.656 2.062,-5.452 3.32,-8.353c1.223,-2.936 2.586,-5.942 4.054,-8.982c1.468,-3.041 3.041,-6.081 4.683,-9.087c1.678,-3.006 3.39,-5.977 5.312,-9.017c1.887,-3.041 3.914,-6.116 6.151,-9.332c2.202,-3.181 4.648,-6.431 7.34,-9.786c2.656,-3.32 5.557,-6.711 8.633,-10.066c1.965,-2.145 3.988,-4.262 6.06,-6.33Z" style="fill:rgb(217,217,217);fill-rule:nonzero;"/></g></svg>