<?xml version="1.0" encoding="UTF-8" standalone="no"?><!DOCTYPE svg PUBLIC "-//W3C//DTD SVG 1.1//EN" "http://www.w3.org/Graphics/SVG/1.1/DTD/svg11.dtd"><svg width="100%" height="100%" viewBox="0 0 279 197" version="1.1" xmlns="http://www.w3.org/2000/svg" xmlns:xlink="http://www.w3.org/1999/xlink" xml:space="preserve" xmlns:serif="http://www.serif.com/" style="fill-rule:evenodd;clip-rule:evenodd;stroke-linejoin:round;stroke-miterlimit:2;"><g id="Up"><path id="_2" serif:id="2" d="M205.634,11.558l64.07,45.092l-64.07,73.621l-66.474,56.042l-66.449,-56.042l-61.178,-72.891l61.178,-45.837c4.143,-1.466 8.385,-2.831 12.66,-4.028c4.369,-1.258 8.773,-2.342 13.246,-3.285c4.439,-0.944 8.947,-1.713 13.456,-2.342c4.509,-0.629 9.017,-1.083 13.561,-1.398c4.509,-0.315 8.982,-0.489 13.526,-0.489c8.458,0 17.021,0.559 25.514,1.678c8.528,1.118 16.986,2.796 25.269,4.998c5.315,1.423 10.546,3.045 15.691,4.882Z" style="fill:rgb(209,209,209);fill-rule:nonzero;"/><path id="_5" serif:id="5" d="M205.634,130.27l-66.462,66.462l-66.462,-66.462l132.924,0Z" style="fill:rgb(217,217,217);"/><path id="_3" serif:id="3" d="M278.354,57.551l-72.72,72.72l-0,-118.713c2.941,1.05 5.854,2.171 8.74,3.366c7.934,3.285 15.658,7.06 23.102,11.359c7.479,4.334 14.714,9.157 21.599,14.4c6.78,5.223 13.217,10.857 19.278,16.868Z" style="fill:rgb(201,201,201);fill-rule:nonzero;"/><path id="_1" serif:id="1" d="M72.711,11.542l0,118.728l-72.711,-72.711c1.135,-1.133 2.284,-2.251 3.447,-3.352c3.32,-3.146 6.711,-6.151 10.206,-9.052c3.495,-2.866 7.095,-5.662 10.765,-8.283c3.705,-2.656 7.479,-5.173 11.359,-7.549c3.845,-2.377 7.794,-4.613 11.813,-6.745c3.984,-2.097 8.109,-4.054 12.233,-5.907c4.159,-1.817 8.353,-3.495 12.617,-5.033c0.09,-0.032 0.181,-0.064 0.271,-0.096Z" style="fill:rgb(217,217,217);fill-rule:nonzero;"/></g></svg>