<?xml version="1.0" encoding="UTF-8" standalone="no"?><!DOCTYPE svg PUBLIC "-//W3C//DTD SVG 1.1//EN" "http://www.w3.org/Graphics/SVG/1.1/DTD/svg11.dtd"><svg width="100%" height="100%" viewBox="0 0 139 139" version="1.1" xmlns="http://www.w3.org/2000/svg" xmlns:xlink="http://www.w3.org/1999/xlink" xml:space="preserve" xmlns:serif="http://www.serif.com/" style="fill-rule:evenodd;clip-rule:evenodd;stroke-linecap:round;stroke-linejoin:round;stroke-miterlimit:1.5;"><g id="Controller"><path id="Crease-R" d="M122.634,-184.714c0,0 17.112,9.239 24.361,19.102c3.411,4.641 47.452,145.947 72.636,284.669c28.334,156.073 37.922,311.285 37.453,311.285c-0.885,0 -54.752,111.169 -105.184,137.235c-50.432,26.066 -308.62,143.67 -314.132,143.67c-2.383,0 -8.037,1.636 -10.971,-0.9c-3.58,-3.094 -2.668,-9.278 -2.521,-12.67c0.158,-3.647 4.413,-8.841 7.438,-13.516c16.58,-25.63 300.433,-273.991 300.433,-273.991l0,-467.928l-9.513,-126.956Z"/><g id="Grip-L-Dots"></g><path id="Grip-R" d="M-173.929,709.724c-0.442,2.123 23.587,31.597 37.241,51.247c13.367,19.237 25.487,39.208 50.34,69.565c54.958,67.131 147.153,163.342 308.431,109.228c179.468,-60.218 152.522,-262.033 152.522,-278.324c0,-16.291 -2.302,-84.068 -5.622,-108.417c-3.32,-24.348 -14.211,-141.353 -75.834,-351.015c-61.624,-209.662 -108.022,-308.009 -119.808,-334.755c-11.786,-26.746 -28.166,-39.158 -30.201,-37.532c-1.381,1.103 1.89,6.767 10.407,41.727c5.391,22.13 14.309,66.769 20.944,95.128c12.538,53.586 23.84,110.299 30.683,146.268c14.145,74.356 28.058,162.069 34.251,235.821c6.404,76.258 -2.711,150 -95.964,210.146c-56.299,36.311 -205.459,102.21 -277.739,133.403c-24.677,10.649 -39.225,15.467 -39.65,17.51Z" style="fill:#1a1a1a;"/><path id="Body-R" d="M135.013,-168.969c4.055,6.592 68.341,302.955 76.841,453.751c8.5,150.796 7.676,201.119 -119.711,282.782c-65.086,41.724 -199.821,106.139 -255.396,128.648c-16.62,6.732 -26.724,-1.111 -26.724,-1.111c0,0 -34.605,-53.168 -131.928,-65.602c-83.863,-10.714 -293.731,-14.325 -293.731,-14.325l0,-938.362c0,0 87.594,-0.1 161.492,1.671c78.784,1.889 194.072,2.035 336.369,35.783c155.813,36.954 249.125,110.809 252.789,116.766Z" style="fill:#1a1a1a;"/><circle id="Y-Button" cx="-64.166" cy="-64.46" r="66.581" style="fill:#181818;stroke:#050505;stroke-width:5.42px;"/><circle id="A-Button" cx="-64.166" cy="202.451" r="66.581" style="fill:#181818;stroke:#050505;stroke-width:5.42px;"/><circle id="B-Button" cx="69.289" cy="69.289" r="66.581" style="fill:#181818;stroke:#050505;stroke-width:5.42px;"/><g id="Active"><circle id="B-Button1" serif:id="B-Button" cx="69.289" cy="69.289" r="66.581" style="fill:#e8e8e8;stroke:#050505;stroke-width:5.42px;"/><circle id="Y-Button1" serif:id="Y-Button" cx="-64.166" cy="-64.46" r="66.581" style="fill:#e8e8e8;stroke:#050505;stroke-width:5.42px;"/><circle id="A-Button1" serif:id="A-Button" cx="-64.166" cy="202.451" r="66.581" style="fill:#e8e8e8;stroke:#050505;stroke-width:5.42px;"/></g><g transform="matrix(86.466068,0,0,86.466068,93.058862,96.586235)"></g><text x="45.519px" y="96.586px" style="font-family:'Consolas-Bold', 'Consolas', monospace;font-weight:700;font-size:86.466px;fill:#050505;">B</text></g></svg>