<?xml version="1.0" encoding="UTF-8" standalone="no"?><!DOCTYPE svg PUBLIC "-//W3C//DTD SVG 1.1//EN" "http://www.w3.org/Graphics/SVG/1.1/DTD/svg11.dtd"><svg width="100%" height="100%" viewBox="0 0 139 139" version="1.1" xmlns="http://www.w3.org/2000/svg" xmlns:xlink="http://www.w3.org/1999/xlink" xml:space="preserve" xmlns:serif="http://www.serif.com/" style="fill-rule:evenodd;clip-rule:evenodd;stroke-linejoin:round;stroke-miterlimit:2;"><path id="B-Button" d="M138.59,69.295c0,38.245 -31.05,69.295 -69.295,69.295c-38.245,0 -69.295,-31.05 -69.295,-69.295c0,-38.245 31.05,-69.295 69.295,-69.295c38.245,0 69.295,31.05 69.295,69.295Z" style="fill:#e8e8e8;"/><path d="M138.59,69.295c0,38.245 -31.05,69.295 -69.295,69.295c-38.245,0 -69.295,-31.05 -69.295,-69.295c0,-38.245 31.05,-69.295 69.295,-69.295c38.245,0 69.295,31.05 69.295,69.295Zm-5.417,0c0,-35.255 -28.623,-63.878 -63.878,-63.878c-35.255,0 -63.878,28.623 -63.878,63.878c0,35.255 28.623,63.878 63.878,63.878c35.255,0 63.878,-28.623 63.878,-63.878Z" style="fill:#050505;"/><path d="M50.971,96.885l0,-55.181l17.817,0c6.277,0 10.984,1.098 14.123,3.293c3.138,2.195 4.708,5.517 4.708,9.964c0,1.379 -0.162,2.723 -0.486,4.032c-0.324,1.309 -0.823,2.512 -1.499,3.61c-0.676,1.098 -1.52,2.069 -2.533,2.913c-1.013,0.844 -2.21,1.506 -3.589,1.984c1.379,0.225 2.695,0.668 3.948,1.33c1.253,0.661 2.35,1.52 3.293,2.575c0.943,1.055 1.689,2.301 2.238,3.736c0.549,1.435 0.823,3.04 0.823,4.813c0,5.629 -1.886,9.858 -5.657,12.687c-3.772,2.829 -9.218,4.243 -16.339,4.243l-16.846,0Zm25.838,-40.109c0,-1.041 -0.169,-1.984 -0.507,-2.829c-0.338,-0.844 -0.88,-1.562 -1.625,-2.153c-0.746,-0.591 -1.703,-1.048 -2.871,-1.372c-1.168,-0.324 -2.582,-0.486 -4.243,-0.486l-6.291,0l0,14.608l6.291,0c1.689,0 3.117,-0.204 4.285,-0.612c1.168,-0.408 2.125,-0.971 2.871,-1.689c0.746,-0.718 1.281,-1.541 1.604,-2.47c0.324,-0.929 0.486,-1.928 0.486,-2.998Zm-8.275,31.623c1.661,0 3.117,-0.211 4.37,-0.633c1.253,-0.422 2.301,-1.006 3.145,-1.752c0.844,-0.746 1.485,-1.625 1.921,-2.639c0.436,-1.013 0.654,-2.097 0.654,-3.251c0,-2.392 -0.894,-4.264 -2.681,-5.615c-1.787,-1.351 -4.525,-2.027 -8.212,-2.027l-6.46,0l0,15.917l7.262,0Z" style="fill:#050505;fill-rule:nonzero;"/></svg>