<?xml version="1.0" encoding="UTF-8" standalone="no"?><!DOCTYPE svg PUBLIC "-//W3C//DTD SVG 1.1//EN" "http://www.w3.org/Graphics/SVG/1.1/DTD/svg11.dtd"><svg width="100%" height="100%" viewBox="0 0 1987 1618" version="1.1" xmlns="http://www.w3.org/2000/svg" xmlns:xlink="http://www.w3.org/1999/xlink" xml:space="preserve" xmlns:serif="http://www.serif.com/" style="fill-rule:evenodd;clip-rule:evenodd;stroke-linejoin:round;stroke-miterlimit:2;"><g><path d="M1776.463,1616.376l-67.915,0c-0.911,-0.253 -1.133,-1.714 -2.044,-1.967c-8.49,-2.36 -69.721,-1.841 -149.454,-84.242c-50.294,-51.976 -72.509,-94.817 -113.949,-147.872c-12.107,-15.5 -6.5,-20.266 -12.007,-21.238c-16.848,-2.972 -12.387,-11.044 -33.283,-26.641c-58.286,-43.505 -111.249,-41.703 -149.216,-46.39c-3.232,-0.399 -3.218,-0.115 -40.571,-3.276c-8.77,-0.742 -180.3,-7.322 -213.555,-7.187c-29.561,0.12 -253.193,5.792 -308.328,16.701c-99.821,19.751 -107.539,65.08 -126.359,66.672c-6.426,0.544 -6.276,1.752 -7.817,8.014c-1.897,7.714 -22.014,29.726 -35.282,50.126c-38.962,59.9 -75.58,99.17 -82.972,107.096c-9.168,9.832 -70.337,75.43 -143.633,87.23c-4.871,0.784 -4.905,-0.292 -9.583,1.007c-0.911,0.253 -1.133,1.713 -2.044,1.966l-67.915,0c-0.924,-0.203 -1.135,-1.751 -2.059,-1.955c-2.605,-0.573 -2.619,0.596 -11.507,-1.033c-50.614,-9.279 -87.686,-31.452 -94.628,-35.604c-64.664,-38.676 -100.052,-124.684 -100.358,-187.393c-0.629,-128.629 -0.046,-178.223 29.315,-322.358c37.831,-185.713 113.952,-395.29 126.163,-428.907c37.974,-104.548 54.586,-127.229 61.685,-136.921c6.757,-9.225 24.901,-16.832 30.469,-23.69c13.037,-16.056 14.611,-14.19 28.576,-25.765c4.575,-3.792 1.066,-32.358 4.383,-42.268c13.173,-39.359 128.066,-91.015 207.676,-107.783c107.567,-22.657 108.324,-6.3 116.093,-7.081c9.814,-0.987 4.951,-23.617 91.232,-22.764c38.937,0.385 59.939,44.319 68.259,49.655c4.157,2.666 108.593,-1.029 118.03,-1.363c23.015,-0.814 7.857,-38.143 27.158,-40.821c3.524,-0.489 163.808,-0.193 164.947,-0.173c23.376,0.414 7.22,29.227 24.796,39.926c5.184,3.156 111.075,3.061 120.737,3.052c7.34,-0.007 19.426,-29.162 46.199,-43.419c29.726,-15.829 85.244,-2.565 97.111,3.158c14.795,7.134 13.135,15.444 25.377,10.802c43.623,-16.54 231.876,32.573 294.878,89.778c30.438,27.638 23.641,32.463 25,65.827c0.199,4.889 16.973,11.732 28.221,26.641c13.304,17.634 18.431,12.348 32.074,29.772c38.436,49.084 205.005,510.942 213.726,768.205c3.624,106.923 0.453,128.802 -1.152,139.877c-23.56,162.551 -148.619,188.904 -183.277,197.478c-12.432,3.076 -12.537,1.282 -21.138,3.175c-0.924,0.203 -1.135,1.751 -2.059,1.955Z" style="fill:#a30000;fill-opacity:1;"/><path d="M447.269,0l27.166,0c3.011,1.191 2.679,1.76 6.001,2.374c28.573,5.282 45.393,38.87 47.705,43.488c15.443,30.84 57.923,189.529 54.587,203.43c-7.506,31.276 -27.936,23.676 -59.979,28.24c-2.151,0.306 -2.148,-0.185 -27.072,2.24c-69.277,6.74 -69.17,6.563 -137.599,18.546c-70.56,12.357 -52.54,-46.608 -37.219,-128.585c0.587,-3.14 13.596,-59.017 21.266,-81.597c16.477,-48.509 68.9,-80.907 99.215,-85.713c3.198,-0.507 2.782,-1.137 5.93,-2.423Z" style="fill:#a30000;fill-opacity:1;"/><path d="M1518.386,0l27.166,0c0.901,0.349 1.212,1.635 2.113,1.984c5.991,2.321 55.056,4.854 93.313,64.767c19.268,30.175 52.311,177.942 43.885,211.625c-9.023,36.072 -52.166,16.223 -114.043,9.403c-6.072,-0.669 -72.642,-8.007 -75.876,-8.53c-23.539,-3.805 -60.302,-0.429 -73.346,-10.819c-19.803,-15.774 -9.862,-38.211 14.753,-133.73c27.287,-105.888 45.784,-121.741 74.287,-131.749c0.749,-0.263 1.648,-0.415 1.794,-0.439c3.353,-0.567 2.91,-1.227 5.956,-2.511Z" style="fill:#a30000;fill-opacity:1;"/></g><path d="M434.243,776.351c37.171,0 46.646,-28.789 46.646,-64.867c0,-35.714 -10.022,-61.223 -46.646,-61.223l-45.006,0l0,126.091l45.006,0Zm32.251,-64.867c0,27.332 -6.013,52.477 -32.251,52.477l-30.976,0l0,-101.31l30.976,0c26.239,0 32.251,21.501 32.251,48.833Z" style="fill:#fff;fill-rule:nonzero;"/><rect x="506.763" y="650.26" width="14.03" height="126.091" style="fill:#fff;fill-rule:nonzero;"/><path d="M623.561,651.9c0,0 -23.141,-3.644 -38.082,-3.644c-24.599,0 -40.633,9.475 -40.633,33.891c0,24.052 13.119,30.247 39.176,35.896c20.59,4.009 28.061,8.017 28.061,22.23c0,17.492 -9.111,25.327 -26.967,25.327c-12.937,0 -37.718,-3.28 -37.718,-3.28l-1.458,11.662c0,0 24.963,4.009 39.904,4.009c24.963,0 40.269,-10.933 40.269,-38.811c0,-22.048 -11.115,-28.243 -36.26,-33.891c-22.048,-4.92 -30.794,-7.653 -30.794,-24.052c0,-14.213 9.475,-20.59 27.332,-20.59c10.568,0 35.896,3.098 35.896,3.098l1.275,-11.844Z" style="fill:#fff;fill-rule:nonzero;"/><path d="M725.964,762.321c-8.746,1.64 -22.23,3.28 -32.434,3.28c-28.789,0 -33.345,-16.763 -33.345,-51.93c0,-35.896 4.92,-52.659 32.98,-52.659c9.839,0 24.599,1.822 32.798,3.28l0.547,-11.844c-8.017,-1.64 -21.865,-4.009 -34.802,-4.009c-37.9,0 -46.1,22.594 -46.1,65.232c0,41.544 8.382,64.503 46.1,64.503c12.026,0 25.874,-2.004 34.802,-3.826l-0.547,-12.026Z" style="fill:#fff;fill-rule:nonzero;"/><path d="M792.107,765.783c-29.154,0 -35.349,-17.492 -35.349,-51.93c0,-34.256 6.377,-53.024 35.349,-53.024c28.789,0 35.349,18.95 35.349,53.024c0,35.531 -6.013,51.93 -35.349,51.93Zm0,12.39c39.176,0 49.926,-20.954 49.926,-64.321c0,-41.909 -10.933,-65.414 -49.926,-65.414c-38.993,0 -49.744,23.87 -49.744,65.414c0,42.273 10.568,64.321 49.744,64.321Z" style="fill:#fff;fill-rule:nonzero;"/><path d="M867.725,776.351l14.03,0l0,-113.7l3.462,0l49.015,113.7l25.692,0l0,-126.091l-13.848,0l0,113.7l-3.826,0l-48.286,-113.7l-26.239,0l0,126.091Z" style="fill:#fff;fill-rule:nonzero;"/><path d="M990.9,776.351l14.03,0l0,-113.7l3.462,0l49.015,113.7l25.692,0l0,-126.091l-13.848,0l0,113.7l-3.826,0l-48.286,-113.7l-26.239,0l0,126.091Z" style="fill:#fff;fill-rule:nonzero;"/><path d="M1114.075,776.351l76.711,0l0,-12.39l-62.681,0l0,-45.553l51.748,0l0,-12.208l-51.748,0l0,-43.549l62.681,0l0,-12.39l-76.711,0l0,126.091Z" style="fill:#fff;fill-rule:nonzero;"/><path d="M1288.999,762.321c-8.746,1.64 -22.23,3.28 -32.434,3.28c-28.789,0 -33.345,-16.763 -33.345,-51.93c0,-35.896 4.92,-52.659 32.98,-52.659c9.839,0 24.599,1.822 32.798,3.28l0.547,-11.844c-8.017,-1.64 -21.865,-4.009 -34.802,-4.009c-37.9,0 -46.1,22.594 -46.1,65.232c0,41.544 8.382,64.503 46.1,64.503c12.026,0 25.874,-2.004 34.802,-3.826l-0.547,-12.026Z" style="fill:#fff;fill-rule:nonzero;"/><path d="M1299.385,662.833l38.811,0l0,113.518l13.848,0l0,-113.518l38.447,0l0,-12.573l-91.106,0l0,12.573Z" style="fill:#fff;fill-rule:nonzero;"/><path d="M1408.348,776.351l76.711,0l0,-12.39l-62.681,0l0,-45.553l51.748,0l0,-12.208l-51.748,0l0,-43.549l62.681,0l0,-12.39l-76.711,0l0,126.091Z" style="fill:#fff;fill-rule:nonzero;"/><path d="M1554.117,776.351c37.171,0 46.646,-28.789 46.646,-64.867c0,-35.714 -10.022,-61.223 -46.646,-61.223l-45.006,0l0,126.091l45.006,0Zm32.251,-64.867c0,27.332 -6.013,52.477 -32.251,52.477l-30.976,0l0,-101.31l30.976,0c26.239,0 32.251,21.501 32.251,48.833Z" style="fill:#fff;fill-rule:nonzero;"/></svg>