<?xml version="1.0" encoding="UTF-8" standalone="no"?><!DOCTYPE svg PUBLIC "-//W3C//DTD SVG 1.1//EN" "http://www.w3.org/Graphics/SVG/1.1/DTD/svg11.dtd"><svg width="100%" height="100%" viewBox="0 0 102 166" version="1.1" xmlns="http://www.w3.org/2000/svg" xmlns:xlink="http://www.w3.org/1999/xlink" xml:space="preserve" xmlns:serif="http://www.serif.com/" style="fill-rule:evenodd;clip-rule:evenodd;stroke-linejoin:round;stroke-miterlimit:2;"><path id="Down-Shadow" d="M7.624,43.348l0,116.489c0,0 -2.468,-0.682 -3.696,-1.047c-1.271,-0.378 -3.928,-1.218 -3.928,-1.218l0,-106.599l7.624,-7.624Z" style="fill:#ccc;"/><path id="Down-Shine" d="M94.32,43.348l0,116.489c0,0 2.468,-0.682 3.696,-1.047c1.271,-0.378 3.928,-1.218 3.928,-1.218l0,-106.599l-7.624,-7.624Z" style="fill:#f2f2f2;"/><path id="Down-Button" d="M94.32,159.803l0,-116.455l-43.348,-43.348l-43.348,43.348l0,116.491c0,0 18.771,5.739 43.348,5.739c24.619,0 43.348,-5.776 43.348,-5.776Z" style="fill:#e6e6e6;"/></svg>