<?xml version="1.0" encoding="UTF-8" standalone="no"?><!DOCTYPE svg PUBLIC "-//W3C//DTD SVG 1.1//EN" "http://www.w3.org/Graphics/SVG/1.1/DTD/svg11.dtd"><svg width="100%" height="100%" viewBox="0 0 363 161" version="1.1" xmlns="http://www.w3.org/2000/svg" xmlns:xlink="http://www.w3.org/1999/xlink" xml:space="preserve" xmlns:serif="http://www.serif.com/" style="fill-rule:evenodd;clip-rule:evenodd;stroke-linejoin:round;stroke-miterlimit:2;"><path id="Bumper-L" d="M362.026,42.479c0,0 -0.803,-3.815 -4.013,-8.771c-3.365,-5.195 -15.167,-18.827 -32.012,-27.397c-12.969,-6.599 -23.539,-7.184 -45.69,-5.524c-24.641,1.847 -72.53,11.774 -98.461,18.595c-22.892,6.021 -46.608,14.764 -67.022,23.468c-20.313,8.66 -51.114,22.236 -67.847,33.053c-15.21,9.832 -38.931,30.966 -43.589,40.394c-4.348,8.8 -3.447,38.744 -2.993,44.184c0.233,2.792 42.034,-35.057 134.72,-66.055c37.037,-12.386 81.375,-25.787 122.345,-34.568c56.244,-12.055 104.563,-17.377 104.563,-17.377Z" style="fill:#e6e6e6;"/></svg>