<?xml version="1.0" encoding="UTF-8" standalone="no"?><!DOCTYPE svg PUBLIC "-//W3C//DTD SVG 1.1//EN" "http://www.w3.org/Graphics/SVG/1.1/DTD/svg11.dtd"><svg width="100%" height="100%" viewBox="0 0 92 92" version="1.1" xmlns="http://www.w3.org/2000/svg" xmlns:xlink="http://www.w3.org/1999/xlink" xml:space="preserve" xmlns:serif="http://www.serif.com/" style="fill-rule:evenodd;clip-rule:evenodd;stroke-linecap:square;stroke-linejoin:round;stroke-miterlimit:1.5;"><circle id="Menu-Button" cx="45.853" cy="45.853" r="45.853" style="fill:#e8e8e8;"/><path d="M45.853,0c25.307,0 45.853,20.546 45.853,45.853c0,25.307 -20.546,45.853 -45.853,45.853c-25.307,0 -45.853,-20.546 -45.853,-45.853c0,-25.307 20.546,-45.853 45.853,-45.853Zm0,5.417c-22.318,0 -40.437,18.119 -40.437,40.437c0,22.318 18.119,40.437 40.437,40.437c22.318,0 40.437,-18.119 40.437,-40.437c0,-22.318 -18.119,-40.437 -40.437,-40.437Z" style="fill:#050505;"/><path id="Menu-1" d="M26.734,34.651l35.65,0" style="fill:none;stroke:#070707;stroke-width:4.17px;"/><path id="Menu-2" d="M26.734,45.853l35.65,0" style="fill:none;stroke:#070707;stroke-width:4.17px;"/><path id="Menu-3" d="M26.734,56.994l35.65,0" style="fill:none;stroke:#070707;stroke-width:4.17px;"/></svg>