<?xml version="1.0" encoding="UTF-8" standalone="no"?><!DOCTYPE svg PUBLIC "-//W3C//DTD SVG 1.1//EN" "http://www.w3.org/Graphics/SVG/1.1/DTD/svg11.dtd"><svg width="100%" height="100%" viewBox="0 0 138 138" version="1.1" xmlns="http://www.w3.org/2000/svg" xmlns:xlink="http://www.w3.org/1999/xlink" xml:space="preserve" xmlns:serif="http://www.serif.com/" style="fill-rule:evenodd;clip-rule:evenodd;stroke-linecap:round;stroke-linejoin:round;stroke-miterlimit:1.5;"><circle id="Power-Button" cx="68.947" cy="68.947" r="66.863" style="fill:#e8e8e8;stroke:#050505;stroke-width:4.17px;"/><path id="Power-Button-2" d="M103.193,32.952c0.099,-0.531 -0.109,-1.089 -0.568,-1.421c-0.589,-0.425 -1.404,-0.34 -1.894,0.196l-0.764,0.839l-1.206,0.518c-0.429,-0.133 -0.907,-0.144 -1.405,-0.021c-0.285,0.071 -0.37,0.054 -0.624,0.004c-0.555,-0.109 -1.136,-0.175 -2.063,0.121c-0.327,-0.019 -0.71,0.028 -1.312,0.225c-0.756,0.249 -1.227,0.843 -1.57,1.279l-0.114,0.146c-2.161,0.557 -3.015,1.772 -3.347,2.717c-0.066,0.184 -0.109,0.367 -0.144,0.55c-2.278,-1.727 -5.409,-1.883 -8.066,-0.33c-3.05,1.785 -4.414,5.166 -3.474,8.613c1.517,5.568 6.8,10.813 9.955,13.948l1.022,1.022c1.644,1.677 3.771,5.058 3.347,7.317c-0.103,0.563 -0.402,1.381 -1.779,2.005c-0.702,0.317 -1.373,0.514 -2.023,0.591c1.165,-3.267 0.602,-6.779 -1.61,-9.08c-3.157,-3.278 -6.139,-2.46 -7.279,-1.57c-0.48,0.377 -0.669,1.017 -0.471,1.593c0.2,0.576 0.744,0.964 1.357,0.964c1.515,-0.001 3.22,1.127 3.96,2.624c0.624,1.262 0.504,2.629 -0.342,3.988c-0.641,-0.523 -1.194,-1.1 -1.667,-1.597c-0.195,-0.204 -0.378,-0.396 -0.54,-0.554l-0.118,-0.131c-2.266,-2.553 -4.574,-4.043 -6.886,-4.451c-0.29,-4.086 -3.177,-8.22 -7.553,-10.624c-0.354,-0.196 -0.723,-0.37 -1.104,-0.527c-0.816,-4.27 -3.428,-7.133 -7.595,-8.305c-6.08,-1.713 -10.908,1.004 -13.245,7.451c-0.798,2.2 -2.493,9.699 -3.885,15.986l-0.262,1.178c-0.186,0.831 -1.155,2.325 -2.187,2.681c-0.285,0.1 -0.644,0.146 -1.141,-0.259c-1.014,-0.825 -0.415,-3.205 -0.093,-4.484c0.063,-0.248 0.116,-0.462 0.159,-0.657c0.263,-1.218 -0.137,-2.577 -1.045,-3.545c-0.888,-0.947 -2.118,-1.381 -3.372,-1.192c-2.658,0.4 -3.501,2.55 -3.832,3.519c-0.258,-0.492 -0.613,-1.138 -1.282,-1.52c-0.544,-0.311 -0.909,-0.434 -1.234,-0.482c-0.855,-0.481 -1.437,-0.529 -2.008,-0.532c-0.257,-0.001 -0.344,-0.001 -0.609,-0.129c-0.529,-0.252 -1.074,-0.329 -1.585,-0.232l-0.986,-0.625l-0.624,-0.95c-0.403,-0.614 -1.205,-0.822 -1.858,-0.483c-0.495,0.258 -0.779,0.771 -0.767,1.304c-0.493,0.218 -0.837,0.704 -0.851,1.27c-0.019,0.726 0.511,1.351 1.231,1.452l1.124,0.159l0.972,0.616c0.122,0.488 0.412,0.946 0.855,1.324c0.224,0.191 0.26,0.27 0.367,0.506c0.236,0.518 0.517,1.03 1.305,1.614c0.174,0.274 0.434,0.557 0.943,0.929c0.643,0.47 1.4,0.504 1.953,0.528c0.054,0.004 0.122,0.006 0.186,0.01c1.71,1.435 3.196,1.421 4.159,1.139c0.185,-0.053 0.361,-0.125 0.529,-0.202c-0.076,2.857 1.619,5.495 4.429,6.748c3.227,1.443 6.769,0.582 9.025,-2.189c3.642,-4.477 4.832,-11.825 5.541,-16.214l0.238,-1.428c0.406,-2.313 1.914,-6.01 3.998,-6.982c0.518,-0.242 1.359,-0.475 2.667,0.282c0.668,0.384 1.217,0.815 1.657,1.297c-3.333,0.956 -5.86,3.46 -6.442,6.599c-0.83,4.472 1.573,6.423 2.96,6.829c0.587,0.173 1.215,-0.047 1.569,-0.546c0.354,-0.496 0.351,-1.164 -0.004,-1.659c-0.886,-1.233 -0.96,-3.275 -0.174,-4.75c0.662,-1.241 1.844,-1.94 3.44,-2.043c-0.049,0.827 -0.198,1.613 -0.323,2.287c-0.053,0.276 -0.103,0.538 -0.137,0.762c-0.005,0.024 -0.024,0.106 -0.04,0.17c-0.688,3.028 -0.638,5.58 0.144,7.615c-3.357,2.073 -5.737,6.309 -6.081,11.044c-0.031,0.404 -0.036,0.814 -0.019,1.223c-3.541,2.522 -5.055,6.089 -4.386,10.366c0.976,6.241 5.455,9.497 12.293,8.937c2.332,-0.191 9.856,-1.771 16.152,-3.127l1.178,-0.254c0.835,-0.175 2.596,0.081 3.35,0.871c0.209,0.22 0.402,0.526 0.24,1.147c-0.327,1.265 -2.742,1.712 -4.039,1.954c-0.25,0.045 -0.468,0.085 -0.662,0.129c-1.218,0.269 -2.288,1.199 -2.788,2.427c-0.491,1.201 -0.376,2.501 0.32,3.562c1.472,2.25 3.777,2.121 4.796,2.018c-0.339,0.44 -0.778,1.03 -0.848,1.801c-0.055,0.623 -0.016,1.007 0.076,1.32c-0.083,0.978 0.118,1.528 0.352,2.046c0.106,0.234 0.14,0.314 0.137,0.607c-0.01,0.605 0.161,1.148 0.48,1.579l-0.212,1.47l-0.609,0.958c-0.398,0.621 -0.259,1.438 0.318,1.893c0.427,0.338 1.012,0.403 1.503,0.167c0.402,0.36 0.987,0.475 1.509,0.256c0.67,-0.28 1.023,-1.019 0.82,-1.717l-0.315,-1.091l0.224,-1.562c0.372,-0.314 0.652,-0.754 0.806,-1.29c0.078,-0.281 0.135,-0.347 0.305,-0.543c0.371,-0.429 0.72,-0.899 0.923,-1.857c0.178,-0.272 0.327,-0.628 0.453,-1.245c0.161,-0.78 -0.126,-1.483 -0.332,-1.996l-0.069,-0.173c0.592,-2.151 -0.039,-3.497 -0.695,-4.255c-0.129,-0.145 -0.266,-0.275 -0.405,-0.397c2.627,-1.119 4.319,-3.761 4.291,-6.838c-0.036,-3.535 -2.293,-6.395 -5.75,-7.293c-5.589,-1.445 -12.763,0.534 -17.049,1.717l-1.396,0.38c-2.274,0.595 -6.263,0.763 -8.014,-0.726c-0.436,-0.371 -0.998,-1.034 -0.855,-2.543c0.072,-0.766 0.235,-1.445 0.489,-2.046c2.258,2.632 5.588,3.886 8.683,3.107c4.411,-1.11 5.183,-4.106 4.974,-5.536c-0.087,-0.604 -0.549,-1.087 -1.148,-1.2c-0.6,-0.113 -1.206,0.167 -1.508,0.696c-0.753,1.317 -2.578,2.236 -4.246,2.137c-1.405,-0.084 -2.533,-0.868 -3.292,-2.278c0.774,-0.298 1.547,-0.492 2.214,-0.657c0.275,-0.068 0.532,-0.13 0.75,-0.192c0.057,-0.011 0.115,-0.024 0.172,-0.036c3.455,-0.724 5.943,-2.05 7.425,-3.943c3.456,1.754 8.118,1.654 12.318,-0.358c0.364,-0.175 0.721,-0.375 1.069,-0.593c3.949,1.82 7.797,1.365 11.177,-1.34c4.931,-3.945 5.535,-9.452 1.653,-15.106c-1.325,-1.93 -6.433,-7.676 -10.737,-12.467l-0.805,-0.898c-0.566,-0.638 -1.218,-2.293 -0.907,-3.34c0.086,-0.29 0.257,-0.61 0.876,-0.778c1.259,-0.343 2.847,1.53 3.7,2.536c0.165,0.196 0.307,0.363 0.442,0.512c0.838,0.925 2.176,1.389 3.49,1.215c1.288,-0.171 2.358,-0.918 2.934,-2.049c1.222,-2.394 -0.036,-4.33 -0.631,-5.164c0.55,0.077 1.281,0.165 1.985,-0.159c0.569,-0.261 0.881,-0.486 1.109,-0.722c0.89,-0.413 1.267,-0.86 1.6,-1.321c0.154,-0.208 0.204,-0.279 0.46,-0.42c0.703,-0.389 1.026,-0.904 1.177,-1.307l1.051,-0.452l1.134,0.021c0.736,0.015 1.363,-0.53 1.448,-1.26c0.064,-0.552 -0.2,-1.075 -0.646,-1.364m-38.93,39.935c-0.452,1.244 -3.243,2.462 -5.221,3.203c0.526,-0.996 1.224,-1.932 2.032,-2.685c1.529,-1.426 2.811,-1.388 3.079,-1.244c0.198,0.349 0.171,0.557 0.109,0.726Zm2.104,-7.689c-0.399,0.032 -0.576,-0.076 -0.705,-0.203c-0.944,-0.931 -0.887,-3.973 -0.737,-6.081c0.687,0.892 1.248,1.918 1.596,2.967c0.658,1.981 0.09,3.132 -0.154,3.316Zm7.268,7.123c-1.997,-0.618 -2.601,-1.75 -2.607,-2.054c0.204,-0.347 0.397,-0.427 0.574,-0.458c1.306,-0.224 3.747,1.592 5.372,2.943c-1.122,0.038 -2.284,-0.104 -3.339,-0.431Z" style="fill:#050505;fill-rule:nonzero;"/><path id="Power-Button-1" d="M102.416,34.152l-1.284,-0.285l0.657,-1.175l-0.973,1.068l-2.12,0.911c-0.188,-0.202 -0.506,-0.34 -0.996,-0.219c-1.295,0.323 -1.333,-0.368 -2.772,0.157c-0.295,0.109 -0.196,-0.142 -1.126,0.165c-0.647,0.212 -1.083,1.295 -1.516,1.388c-4.174,0.893 -2.52,4.454 -1.944,5.159c0.716,0.877 0.121,1.178 -0.197,0.862c-0.495,-0.495 -1.108,-1.307 -2.284,-2.466c-4.031,-3.976 -11.539,0.066 -9.841,6.294c1.6,5.865 7.961,11.636 10.621,14.346c2.406,2.452 6.588,9.154 1.135,11.625c-1.853,0.841 -3.444,0.905 -4.798,0.563c1.902,-3.102 1.792,-7.025 -0.455,-9.361c-3.094,-3.214 -5.366,-1.435 -5.366,-1.435c3.6,-0.003 8.122,4.554 4.396,9.437c-0.149,0.195 -0.309,0.382 -0.479,0.56c-1.596,-0.945 -2.743,-2.335 -3.521,-3.102c-0.345,-0.342 -3.498,-4.36 -7.417,-4.274c0.343,-4.17 -2.673,-8.41 -6.809,-10.683c-0.541,-0.296 -1.11,-0.54 -1.697,-0.728c-0.405,-3.118 -1.938,-6.638 -6.705,-7.981c-7.262,-2.045 -10.355,3.369 -11.512,6.563c-0.992,2.735 -3.649,15.004 -4.096,16.991c-0.425,1.895 -3.081,5.292 -5.627,3.216c-1.963,-1.599 -0.727,-5.175 -0.43,-6.552c0.32,-1.481 -0.994,-3.294 -2.807,-3.021c-2.172,0.327 -2.579,2.323 -2.829,2.966c-0.526,1.355 -1.752,0.685 -1.999,0.524c-0.372,-0.24 -0.618,-1.326 -1.21,-1.664c-0.85,-0.485 -0.801,-0.221 -1.069,-0.384c-1.305,-0.803 -1.482,-0.135 -2.686,-0.707c-0.375,-0.179 -0.672,-0.162 -0.891,-0.061c-0.073,0.047 -0.122,0.096 -0.191,0.159l-1.898,-1.204l-0.791,-1.207l0.488,1.221l-1.339,0.12l1.43,0.201l1.874,1.189c-0.096,0.281 -0.059,0.666 0.375,1.037c1.015,0.866 0.477,1.299 1.741,2.164c0.26,0.176 -0.002,0.241 0.789,0.818c0.549,0.402 1.684,0.126 2.012,0.425c3.156,2.872 5.089,-0.544 5.326,-1.425c0.295,-1.092 0.888,-0.784 0.816,-0.343c-0.116,0.691 -0.419,1.662 -0.676,3.293c-0.887,5.594 6.773,9.345 10.848,4.338c3.836,-4.715 4.825,-13.248 5.48,-16.987c0.595,-3.384 3.608,-10.687 8.79,-7.693c1.763,1.018 2.74,2.273 3.251,3.572c-3.631,0.259 -6.756,2.634 -7.346,5.823c-0.811,4.384 1.958,5.196 1.958,5.196c-2.1,-2.925 -1.025,-9.254 5.113,-9.068c0.246,0.008 0.491,0.029 0.734,0.063c0.16,1.847 -0.301,3.589 -0.471,4.667c-0.075,0.464 -1.405,5.033 0.6,8.169c-3.759,1.546 -6.227,5.941 -6.561,10.523c-0.046,0.635 -0.028,1.25 0.043,1.845c-2.666,1.669 -5.225,4.529 -4.459,9.422c1.166,7.454 7.375,8.01 10.762,7.732c2.897,-0.238 15.16,-2.934 17.151,-3.354c1.901,-0.402 6.095,0.598 5.27,3.775c-0.637,2.451 -4.404,2.817 -5.777,3.119c-1.483,0.326 -2.581,2.277 -1.577,3.811c1.203,1.838 3.186,1.377 3.873,1.337c1.453,-0.085 1.353,1.308 1.309,1.6c-0.064,0.439 -0.947,1.115 -1.008,1.791c-0.087,0.975 0.133,0.821 0.096,1.132c-0.188,1.521 0.494,1.401 0.474,2.736c-0.006,0.404 0.127,0.662 0.302,0.819l0.006,-0.007l0.052,0.055l0.051,0.039l0,0.002c0.052,0.034 0.108,0.06 0.167,0.079l-0.368,2.55l-0.777,1.218l0.915,-0.947l0.659,1.173l-0.402,-1.388l0.372,-2.575c0.282,-0.045 0.591,-0.246 0.739,-0.768c0.365,-1.284 0.982,-0.974 1.241,-2.484c0.054,-0.309 0.219,-0.098 0.416,-1.057c0.139,-0.666 -0.585,-1.584 -0.452,-2.006c1.296,-4.068 -2.615,-4.4 -3.513,-4.251c-1.116,0.187 -1.084,-0.48 -0.651,-0.597c0.677,-0.185 1.684,-0.314 3.274,-0.758c5.455,-1.527 5.674,-10.051 -0.575,-11.669c-5.887,-1.523 -14.055,1.133 -17.726,2.095c-3.324,0.87 -11.218,1.173 -10.654,-4.786c0.191,-2.027 0.924,-3.438 1.892,-4.443c1.749,3.19 5.21,5.042 8.354,4.249c4.327,-1.087 3.91,-3.943 3.91,-3.943c-1.785,3.125 -7.984,4.788 -10.374,-0.87c-0.094,-0.227 -0.177,-0.458 -0.248,-0.693c1.614,-0.916 3.388,-1.222 4.441,-1.516c0.479,-0.133 5.74,-0.904 7.505,-4.543c3.217,2.318 8.113,2.236 12.156,0.296c0.574,-0.274 1.099,-0.597 1.581,-0.952c2.771,1.484 6.526,2.286 10.393,-0.806c5.891,-4.714 3.29,-10.38 1.367,-13.182c-1.646,-2.397 -10.073,-11.702 -11.431,-13.221c-1.289,-1.451 -2.507,-5.586 0.662,-6.448c2.443,-0.665 4.632,2.423 5.578,3.467c1.019,1.123 3.256,1.109 4.091,-0.524c0.999,-1.957 -0.388,-3.45 -0.764,-4.026c-0.795,-1.218 0.463,-1.822 0.738,-1.931c0.412,-0.162 1.438,0.27 2.056,-0.015c0.891,-0.408 0.647,-0.523 0.936,-0.646c1.413,-0.593 0.972,-1.125 2.138,-1.771c0.322,-0.178 0.484,-0.393 0.548,-0.603l-0.012,-0.041c0.052,-0.181 0.046,-0.306 0.02,-0.404l2.082,-0.894l1.442,0.026m-38.772,23.005c0.04,-0.389 0.076,-0.844 0.098,-1.346c2.004,1.368 3.457,3.579 4.137,5.618c0.983,2.964 -0.107,5.05 -1.29,5.185c-3.932,0.45 -3.247,-6.424 -2.945,-9.456Zm-5.665,20.829c-0.37,0.127 -0.799,0.282 -1.267,0.473c0.411,-2.392 1.815,-4.634 3.387,-6.101c2.283,-2.129 4.634,-2.007 5.249,-0.988c2.046,3.386 -4.489,5.626 -7.37,6.615Zm15.233,-4.299c-2.983,-0.923 -4.043,-3.026 -3.465,-4.066c1.923,-3.46 7.114,1.1 9.404,3.111c0.293,0.258 0.641,0.554 1.039,0.864c-2.28,0.833 -4.925,0.728 -6.978,0.091Z" style="fill:#171717;fill-rule:nonzero;"/></svg>