<?xml version="1.0" encoding="UTF-8" standalone="no"?><!DOCTYPE svg PUBLIC "-//W3C//DTD SVG 1.1//EN" "http://www.w3.org/Graphics/SVG/1.1/DTD/svg11.dtd"><svg width="100%" height="100%" viewBox="0 0 166 102" version="1.1" xmlns="http://www.w3.org/2000/svg" xmlns:xlink="http://www.w3.org/1999/xlink" xml:space="preserve" xmlns:serif="http://www.serif.com/" style="fill-rule:evenodd;clip-rule:evenodd;stroke-linejoin:round;stroke-miterlimit:2;"><path id="Right-Shadow" d="M43.348,94.32l116.489,0c0,0 -0.682,2.468 -1.047,3.696c-0.378,1.271 -1.218,3.928 -1.218,3.928l-106.599,0l-7.624,-7.624Z" style="fill:#ccc;"/><path id="Right-Shine" d="M43.348,7.624l116.489,0c0,0 -0.682,-2.468 -1.047,-3.696c-0.378,-1.271 -1.218,-3.928 -1.218,-3.928l-106.599,0l-7.624,7.624Z" style="fill:#f2f2f2;"/><path id="Right-Button" d="M159.803,7.624l-116.455,0l-43.348,43.348l43.348,43.348l116.491,-0c0,0 5.739,-18.771 5.739,-43.348c0,-24.619 -5.776,-43.348 -5.776,-43.348Z" style="fill:#e6e6e6;"/></svg>