<?xml version="1.0" encoding="UTF-8" standalone="no"?><!DOCTYPE svg PUBLIC "-//W3C//DTD SVG 1.1//EN" "http://www.w3.org/Graphics/SVG/1.1/DTD/svg11.dtd"><svg width="100%" height="100%" viewBox="0 0 102 166" version="1.1" xmlns="http://www.w3.org/2000/svg" xmlns:xlink="http://www.w3.org/1999/xlink" xml:space="preserve" xmlns:serif="http://www.serif.com/" style="fill-rule:evenodd;clip-rule:evenodd;stroke-linejoin:round;stroke-miterlimit:2;"><path id="Up-Shadow" d="M7.624,5.742l0,116.489l-7.624,-7.624l0,-106.599c0,0 2.466,-0.778 3.716,-1.15c1.271,-0.378 3.908,-1.116 3.908,-1.116Z" style="fill:#ccc;"/><path id="Up-Shine" d="M94.32,5.742l0,116.489l7.624,-7.624l0,-106.599c0,0 -2.466,-0.778 -3.716,-1.15c-1.271,-0.378 -3.908,-1.116 -3.908,-1.116Z" style="fill:#f2f2f2;"/><path id="Up-Button" d="M7.624,5.776l0,116.455l43.348,43.348l43.348,-43.348l0,-116.491c0,0 -18.771,-5.739 -43.348,-5.739c-24.619,0 -43.348,5.776 -43.348,5.776Z" style="fill:#e6e6e6;"/></svg>