<?xml version="1.0" encoding="UTF-8" standalone="no"?><!DOCTYPE svg PUBLIC "-//W3C//DTD SVG 1.1//EN" "http://www.w3.org/Graphics/SVG/1.1/DTD/svg11.dtd"><svg width="100%" height="100%" viewBox="0 0 92 92" version="1.1" xmlns="http://www.w3.org/2000/svg" xmlns:xlink="http://www.w3.org/1999/xlink" xml:space="preserve" xmlns:serif="http://www.serif.com/" style="fill-rule:evenodd;clip-rule:evenodd;stroke-linecap:round;stroke-linejoin:round;stroke-miterlimit:1.5;"><g id="Controller"><g id="Grip-L-Dots"></g><g id="Grip-R-Dots"></g><path id="Body-L" d="M-514.359,-71.211c-4.055,6.592 -68.341,302.955 -76.841,453.751c-8.5,150.796 -7.676,201.119 119.711,282.782c65.086,41.724 199.821,106.139 255.396,128.648c16.62,6.732 26.724,-1.111 26.724,-1.111c0,0 34.605,-53.168 131.928,-65.602c83.863,-10.714 293.731,-14.325 293.731,-14.325l0,-938.362c0,0 -87.594,-0.1 -161.492,1.671c-78.784,1.889 -194.072,2.035 -336.369,35.783c-155.813,36.954 -249.125,110.809 -252.789,116.766Z" style="fill:#1a1a1a;"/><circle id="View-Button" cx="45.847" cy="45.847" r="43.139" style="fill:#171717;stroke:#050505;stroke-width:5.42px;"/><g id="Active"><circle id="View-Button1" serif:id="View-Button" cx="45.847" cy="45.847" r="43.139" style="fill:#e8e8e8;stroke:#050505;stroke-width:5.42px;"/></g><path id="View-2" d="M68.698,40.389l0,26.208l-30.98,0l0,-26.208l30.98,0Zm-4.167,4.167l-22.647,0l-0,17.875l22.647,-0l-0,-17.875Z" style="fill:#050505;"/><path id="View-1" d="M50.999,34.531l0,-8.234l-26.773,0l0,22.032l7.509,0" style="fill:none;stroke:#050505;stroke-width:4.17px;stroke-linecap:square;stroke-linejoin:miter;"/></g></svg>