<?xml version="1.0" encoding="UTF-8" standalone="no"?><!DOCTYPE svg PUBLIC "-//W3C//DTD SVG 1.1//EN" "http://www.w3.org/Graphics/SVG/1.1/DTD/svg11.dtd"><svg width="100%" height="100%" viewBox="0 0 92 92" version="1.1" xmlns="http://www.w3.org/2000/svg" xmlns:xlink="http://www.w3.org/1999/xlink" xml:space="preserve" xmlns:serif="http://www.serif.com/" style="fill-rule:evenodd;clip-rule:evenodd;stroke-linecap:square;stroke-miterlimit:1.5;"><circle id="View-Button" cx="45.853" cy="45.853" r="45.853" style="fill:#e8e8e8;"/><path d="M45.853,0c25.307,0 45.853,20.546 45.853,45.853c0,25.307 -20.546,45.853 -45.853,45.853c-25.307,0 -45.853,-20.546 -45.853,-45.853c0,-25.307 20.546,-45.853 45.853,-45.853Zm0,5.417c-22.318,0 -40.437,18.119 -40.437,40.437c0,22.318 18.119,40.437 40.437,40.437c22.318,0 40.437,-18.119 40.437,-40.437c0,-22.318 -18.119,-40.437 -40.437,-40.437Z" style="fill:#050505;"/><path id="View-2" d="M68.704,40.395l0,26.208l-30.98,0l0,-26.208l30.98,0Zm-4.167,4.167l-22.647,0l-0,17.875l22.647,-0l-0,-17.875Z" style="fill:#050505;"/><path id="View-1" d="M51.005,34.537l0,-8.234l-26.773,0l0,22.032l7.509,0" style="fill:none;stroke:#050505;stroke-width:4.17px;"/></svg>