<?xml version="1.0" encoding="UTF-8" standalone="no"?><!DOCTYPE svg PUBLIC "-//W3C//DTD SVG 1.1//EN" "http://www.w3.org/Graphics/SVG/1.1/DTD/svg11.dtd"><svg width="100%" height="100%" viewBox="0 0 139 139" version="1.1" xmlns="http://www.w3.org/2000/svg" xmlns:xlink="http://www.w3.org/1999/xlink" xml:space="preserve" xmlns:serif="http://www.serif.com/" style="fill-rule:evenodd;clip-rule:evenodd;stroke-linejoin:round;stroke-miterlimit:2;"><path id="X-Button" d="M138.59,69.295c0,38.245 -31.05,69.295 -69.295,69.295c-38.245,0 -69.295,-31.05 -69.295,-69.295c0,-38.245 31.05,-69.295 69.295,-69.295c38.245,0 69.295,31.05 69.295,69.295Z" style="fill:#e8e8e8;"/><path d="M138.59,69.295c0,38.245 -31.05,69.295 -69.295,69.295c-38.245,0 -69.295,-31.05 -69.295,-69.295c0,-38.245 31.05,-69.295 69.295,-69.295c38.245,0 69.295,31.05 69.295,69.295Zm-5.417,0c0,-35.255 -28.623,-63.878 -63.878,-63.878c-35.255,0 -63.878,28.623 -63.878,63.878c0,35.255 28.623,63.878 63.878,63.878c35.255,0 63.878,-28.623 63.878,-63.878Z" style="fill:#050505;"/><path d="M78.414,96.885l-10.639,-20.308l-10.471,20.308l-12.539,0l15.917,-28.287l-14.861,-26.894l12.202,0l10.006,19.21l9.668,-19.21l12.202,0l-14.777,26.894l16.508,28.287l-13.215,0Z" style="fill:#050505;fill-rule:nonzero;"/></svg>