<?xml version="1.0" encoding="UTF-8" standalone="no"?><!DOCTYPE svg PUBLIC "-//W3C//DTD SVG 1.1//EN" "http://www.w3.org/Graphics/SVG/1.1/DTD/svg11.dtd"><svg width="100%" height="100%" viewBox="0 0 139 139" version="1.1" xmlns="http://www.w3.org/2000/svg" xmlns:xlink="http://www.w3.org/1999/xlink" xml:space="preserve" xmlns:serif="http://www.serif.com/" style="fill-rule:evenodd;clip-rule:evenodd;stroke-linejoin:round;stroke-miterlimit:2;"><circle id="Y-Button" cx="69.295" cy="69.295" r="69.295" style="fill:#e8e8e8;"/><path d="M69.295,0c38.245,0 69.295,31.05 69.295,69.295c0,38.245 -31.05,69.295 -69.295,69.295c-38.245,0 -69.295,-31.05 -69.295,-69.295c0,-38.245 31.05,-69.295 69.295,-69.295Zm0,5.417c-35.255,0 -63.878,28.623 -63.878,63.878c0,35.255 28.623,63.878 63.878,63.878c35.255,0 63.878,-28.623 63.878,-63.878c0,-35.255 -28.623,-63.878 -63.878,-63.878Z" style="fill:#050505;"/><path d="M73.348,77.338l0,19.548l-10.555,0l0,-19.463l-17.943,-35.718l11.526,0l8.106,17.057l3.715,8.36l3.715,-8.613l8.486,-16.803l11.062,0l-18.112,35.633Z" style="fill:#050505;fill-rule:nonzero;"/></svg>