<?xml version="1.0" encoding="UTF-8" standalone="no"?><!DOCTYPE svg PUBLIC "-//W3C//DTD SVG 1.1//EN" "http://www.w3.org/Graphics/SVG/1.1/DTD/svg11.dtd"><svg width="100%" height="100%" viewBox="0 0 171 171" version="1.1" xmlns="http://www.w3.org/2000/svg" xmlns:xlink="http://www.w3.org/1999/xlink" xml:space="preserve" xmlns:serif="http://www.serif.com/" style="fill-rule:evenodd;clip-rule:evenodd;stroke-linecap:round;stroke-linejoin:round;stroke-miterlimit:10;"><path id="A-Button" serif:id="A Button" d="M2.778,85.365c0,45.581 37.006,82.588 82.588,82.588c45.581,0 82.588,-37.006 82.588,-82.588c0,-45.581 -37.006,-82.588 -82.588,-82.588c-45.581,0 -82.588,37.006 -82.588,82.588Z" style="fill:#e6e6e6;stroke:#050505;stroke-width:5.56px;"/><path id="A" d="M76.501,89.849l0.815,-3.09l1.664,-6.826l5.773,-22.073l9.508,31.988l-17.76,0Zm14.025,-52.839l-10.527,0l-26.216,90.634l12.598,0l7.437,-27.88l23.125,0l7.233,27.88l12.598,0l-26.25,-90.634Z" style="fill:url(#_Linear1);fill-rule:nonzero;"/><defs><linearGradient id="_Linear1" x1="0" y1="0" x2="1" y2="0" gradientUnits="userSpaceOnUse" gradientTransform="matrix(0,102.213587,-181.471565,0,92.698568,11.610254)"><stop offset="0" style="stop-color:#4d4d4d;stop-opacity:1"/><stop offset="1" style="stop-color:#404040;stop-opacity:1"/></linearGradient></defs></svg>