<?xml version="1.0" encoding="UTF-8" standalone="no"?><!DOCTYPE svg PUBLIC "-//W3C//DTD SVG 1.1//EN" "http://www.w3.org/Graphics/SVG/1.1/DTD/svg11.dtd"><svg width="100%" height="100%" viewBox="0 0 171 171" version="1.1" xmlns="http://www.w3.org/2000/svg" xmlns:xlink="http://www.w3.org/1999/xlink" xml:space="preserve" xmlns:serif="http://www.serif.com/" style="fill-rule:evenodd;clip-rule:evenodd;stroke-linecap:round;stroke-linejoin:round;stroke-miterlimit:10;"><path id="B-Button" serif:id="B Button" d="M2.778,85.365c0,45.581 37.006,82.588 82.588,82.588c45.581,0 82.588,-37.006 82.588,-82.588c0,-45.581 -37.006,-82.588 -82.588,-82.588c-45.581,0 -82.588,37.006 -82.588,82.588Z" style="fill:#e6e6e6;stroke:#050505;stroke-width:5.56px;"/><path id="B" d="M104.18,107.778c-0.204,1.222 -0.407,2.683 -0.815,3.701c-0.407,1.053 -0.849,2.071 -1.664,3.124c-0.611,0.815 -1.222,1.63 -2.275,2.275c-1.63,1.222 -3.701,2.241 -5.977,2.683c-1.868,0.611 -3.498,0.815 -5.365,0.815l-2.683,0.204l-12.598,0l0,-32.43l13.617,0c0.815,0 1.46,0 2.275,0.238l1.019,0c0.441,0 0.645,0.204 1.053,0.204l2.071,0.407c0.611,0.204 1.426,0.407 2.241,0.611l0,0.204c0.645,0.204 1.46,0.407 2.071,0.815l0.204,0l1.664,1.053c0.611,0.407 1.222,1.019 1.868,1.426c0,0.204 0.204,0.204 0.204,0.204c0,0 0.204,0.238 0.204,0.441c0.611,0.407 1.019,1.019 1.222,1.426l0,0.204c0.204,0.204 0.441,0.611 0.645,0.849c0.204,0.407 0.407,1.019 0.611,1.426c0.204,0.815 0.407,1.664 0.611,2.683l0,0.204c0,1.053 0.204,2.071 0.204,3.09c0,1.46 -0.204,2.92 -0.407,4.143m-31.377,-57.797l15.892,0c0.611,0 1.256,0 1.868,0.204l0.407,0c0.407,0 0.815,0 1.222,0.204l0.645,0c0.204,0.204 0.611,0.204 0.815,0.204c0.204,0.204 0.407,0.204 0.407,0.204c0.407,0.204 0.815,0.407 1.256,0.407c0.204,0.204 0.407,0.204 0.407,0.204c0.407,0.204 0.815,0.407 1.222,0.645c0,0.204 0.204,0.204 0.204,0.204c0.407,0.407 0.849,0.611 1.256,1.019c0.611,0.407 1.019,0.815 1.426,1.256l0,0.204c0.204,0 0.204,0 0.204,0.204c0.441,0.407 0.849,1.019 1.053,1.63c0.204,0.204 0.204,0.407 0.204,0.611c0.204,0.441 0.407,0.849 0.611,1.46l0.407,2.275l0.204,2.275l-0.204,2.275l0,0.611c0,0.407 -0.204,0.815 -0.204,1.222c0,0.441 -0.204,0.645 -0.204,0.849c0,0.407 -0.204,0.611 -0.204,1.019l-0.407,1.053c0,0 0,0.204 -0.204,0.407l-0.611,1.426c0,0.204 -0.238,0.204 -0.238,0.204l-0.815,1.053c0,0.204 -0.204,0.204 -0.204,0.407c-0.407,0.407 -0.611,0.611 -1.019,1.019c-0.407,0.204 -0.645,0.407 -1.053,0.645c-1.63,1.222 -3.701,2.037 -5.773,2.479c-0.407,0 -0.815,0.204 -1.222,0.204l-17.353,0l0,-28.083Zm44.179,49.748c0,-0.407 -0.204,-1.019 -0.204,-1.46c-0.204,-0.815 -0.407,-1.426 -0.611,-2.037l-0.849,-1.868c-0.204,-0.611 -0.611,-1.053 -0.815,-1.46c0,-0.204 0,-0.204 -0.204,-0.204c-0.611,-1.019 -1.256,-1.868 -2.071,-2.683l-0.204,-0.204c-1.019,-1.019 -2.071,-1.868 -3.09,-2.683c-0.815,-0.407 -1.46,-1.019 -2.275,-1.46c-0.611,-0.204 -1.019,-0.611 -1.664,-0.815c-0.407,-0.204 -0.815,-0.407 -1.222,-0.407c-0.815,-0.407 -1.868,-0.815 -2.886,-1.019c1.222,-0.407 2.275,-0.849 3.294,-1.46c0.407,-0.407 1.019,-0.611 1.46,-0.815c0.611,-0.407 1.019,-0.849 1.63,-1.46c0.204,0 0.407,-0.204 0.611,-0.407c0.645,-0.407 1.46,-1.222 2.071,-1.868c0,0 0.204,0 0.204,-0.204c0.645,-0.611 1.46,-1.426 1.868,-2.479l0.204,0l0,-0.204c0.611,-1.019 1.053,-2.071 1.256,-3.09l0.204,-0.204l0,-0.407c0.407,-1.053 0.611,-2.071 0.611,-3.09c0,-0.441 0.204,-0.645 0.204,-0.849c0,-1.222 0.204,-2.479 0.204,-3.701c0,-1.46 -0.204,-3.09 -0.611,-4.754c0,-0.407 0,-0.815 -0.204,-1.256c-0.204,-1.019 -0.611,-2.037 -1.053,-2.886c-0.204,-1.019 -0.815,-1.834 -1.222,-2.683c-0.204,-0.611 -0.611,-1.019 -0.815,-1.222c-0.849,-1.46 -1.664,-2.479 -2.683,-3.498c-0.645,-0.645 -1.053,-1.053 -1.664,-1.46c-0.611,-0.611 -1.256,-1.019 -1.868,-1.46c-1.426,-1.019 -3.09,-1.63 -4.55,-2.241c-1.834,-0.645 -3.701,-1.053 -5.569,-1.46c-1.019,0 -1.834,-0.204 -2.683,-0.204l-3.701,-0.204l-27.676,-0l0,90.838l26.623,0c1.46,0 2.683,0 4.143,-0.204l1.222,0c0.849,-0.204 1.664,-0.204 2.479,-0.407c0.441,0 0.849,-0.204 1.46,-0.204l1.868,-0.441c0.407,-0.204 0.815,-0.204 1.222,-0.407c0.611,-0.204 1.256,-0.407 1.868,-0.407c0.407,-0.204 0.611,-0.407 1.019,-0.407c0.645,-0.204 1.053,-0.407 1.664,-0.611c0.204,-0.204 0.611,-0.407 0.815,-0.407c0.611,-0.441 1.053,-0.645 1.46,-0.849c0.204,-0.204 0.611,-0.204 0.815,-0.407c0.611,-0.407 1.256,-0.611 1.664,-1.019c0.611,-0.441 1.019,-0.849 1.63,-1.256c0.645,-0.611 1.46,-1.426 1.868,-2.071c1.256,-1.426 2.071,-3.09 2.886,-4.72c0.815,-2.071 1.256,-4.143 1.664,-6.214c0.204,-1.019 0.204,-2.275 0.407,-3.498l0,-3.532c0,-1.222 0,-2.683 -0.204,-3.905" style="fill:url(#_Linear1);fill-rule:nonzero;"/><defs><linearGradient id="_Linear1" x1="0" y1="0" x2="1" y2="0" gradientUnits="userSpaceOnUse" gradientTransform="matrix(0,102.213587,-181.471565,0,111.192096,38.724021)"><stop offset="0" style="stop-color:#4d4d4d;stop-opacity:1"/><stop offset="1" style="stop-color:#404040;stop-opacity:1"/></linearGradient></defs></svg>