<?xml version="1.0" encoding="UTF-8" standalone="no"?><!DOCTYPE svg PUBLIC "-//W3C//DTD SVG 1.1//EN" "http://www.w3.org/Graphics/SVG/1.1/DTD/svg11.dtd"><svg width="100%" height="100%" viewBox="0 0 2504 1700" version="1.1" xmlns="http://www.w3.org/2000/svg" xmlns:xlink="http://www.w3.org/1999/xlink" xml:space="preserve" xmlns:serif="http://www.serif.com/" style="fill-rule:evenodd;clip-rule:evenodd;stroke-linejoin:round;stroke-miterlimit:2;"><g id="Disconnected"><path id="Left-Bumper" serif:id="Left Bumper" d="M911.637,76.043c0,0 -42.652,-39.96 -82.779,-52.83c-40.127,-12.871 -104.033,-7.429 -119.341,-6.46c-15.092,0.955 -89.871,9.446 -111.38,13.409c-20.435,3.766 -67.688,15.182 -84.908,20.056c-17.22,4.874 -38.502,11.785 -72.618,34.042c-34.116,22.257 -87.714,57.867 -87.714,88.961l0,20.577l10.266,7.999l537.971,-115.632l10.503,-10.122Z" style="fill:rgb(163,0,0);"/><path id="Right-Button" serif:id="Right Button" d="M1559.944,60.364c0,0 35.024,-0.572 59.978,9.175l117.192,-51.591c0,0 -4.701,-12.037 -40.637,-13.983c-33.87,-1.834 -103.951,-4.463 -113.973,-2.81c-10.002,1.65 -22.308,11.895 -22.308,11.895l-0.251,47.314Z" style="fill:rgb(163,0,0);"/><path id="Right-Trigger" serif:id="Right Trigger" d="M1891.494,28.415c0,0 8.882,-32.031 62.176,-21.443c30.887,6.136 39.207,7.731 75.028,14.663c14.906,2.884 26.911,6.712 36.298,29.662c8.045,19.671 19.671,48.652 19.671,48.652l-6.297,4.93l-180.488,-70.017l-6.388,-6.448Z" style="fill:rgb(163,0,0);"/><path id="Left-Button" serif:id="Left Button" d="M943.389,60.364c0,0 -35.024,-0.572 -59.978,9.175l-117.192,-51.591c0,0 4.701,-12.037 40.637,-13.983c33.87,-1.834 103.951,-4.463 113.973,-2.81c10.002,1.65 22.308,11.895 22.308,11.895l0.251,47.314Z" style="fill:rgb(163,0,0);"/><path id="Left-Trigger" serif:id="Left Trigger" d="M611.839,28.415c0,0 -8.882,-32.031 -62.176,-21.443c-30.887,6.136 -39.207,7.731 -75.028,14.663c-14.906,2.884 -26.911,6.712 -36.298,29.662c-8.045,19.671 -19.671,48.652 -19.671,48.652l6.297,4.93l180.488,-70.017l6.388,-6.448Z" style="fill:rgb(163,0,0);"/><path id="Right-Bumper" serif:id="Right Bumper" d="M1591.696,76.043c0,0 42.652,-39.96 82.779,-52.83c40.127,-12.871 104.033,-7.429 119.341,-6.46c15.092,0.955 89.871,9.446 111.38,13.409c20.435,3.766 67.688,15.182 84.908,20.056c17.22,4.874 38.502,11.785 72.618,34.042c34.116,22.257 87.714,57.867 87.714,88.961l0,20.577l-10.266,7.999l-537.971,-115.632l-10.503,-10.122Z" style="fill:rgb(163,0,0);"/><path id="Faceplate---R" serif:id="Faceplate - R" d="M1200.83,1130.332l50.837,112.304c0,0 257.103,-0.136 378.095,-0.136c85.25,0 124.83,8.78 124.83,8.78c0,0 310.124,-368.793 440.732,-652.091c57.94,-125.675 32.784,-300.907 32.784,-300.907l-16.381,-34.941c0,0 -14.072,-21.853 -21.048,-32.817c-6.117,-9.614 -12.544,-19.735 -33.98,-33.312c-126.684,-80.236 -277.72,-103.202 -328.732,-109.353c-41.986,-5.063 -83.773,-11.256 -154.689,-11.256c-18.57,0 -421.611,-0.561 -421.611,-0.561l-50.837,70.79l0,983.5Z" style="fill:rgb(163,0,0);"/><path id="Faceplate---L" serif:id="Faceplate - L" d="M1251.667,76.043l0,1166.593c0,0 -257.103,-0.136 -378.095,-0.136c-85.25,0 -124.83,8.78 -124.83,8.78c0,0 -310.124,-368.793 -440.732,-652.091c-57.94,-125.675 -32.784,-300.907 -32.784,-300.907l16.381,-34.941c0,0 14.072,-21.853 21.048,-32.817c6.117,-9.614 12.544,-19.735 33.98,-33.312c126.684,-80.236 277.72,-103.202 328.732,-109.353c41.986,-5.063 83.773,-11.256 154.689,-11.256c18.57,0 421.611,-0.561 421.611,-0.561Z" style="fill:rgb(163,0,0);"/><path id="Grip---L" serif:id="Grip - L" d="M748.742,1251.284c0,0 -100.065,8.124 -154.338,109.27c-54.273,101.146 -75.248,141.74 -94.774,178.101c-12.975,24.163 -40.916,77.167 -78.016,109.002c-34.072,29.237 -86.269,51.206 -160.604,51.576c-80.638,0.402 -141.649,-18.642 -190.234,-69.283c-35.082,-36.567 -63.505,-109.82 -68.045,-172.106c-9.058,-124.272 19.882,-320.129 39.345,-423.259c15.217,-80.633 52.56,-243.166 90.005,-360.457c16.237,-50.861 38.595,-123.571 66.604,-194.987c36.584,-93.279 76.821,-181.488 76.821,-181.488c0,0 44.087,7.159 39.496,65.29c-3.421,43.318 -5.043,65.314 -8.03,96.427c-3.655,38.077 -4.216,75.896 28.274,132.7c42.707,74.67 95.31,168.064 144.237,250.87c65.544,110.93 136.236,235.693 269.26,408.344Z" style="fill:rgb(163,0,0);"/><path id="Grip---R" serif:id="Grip - R" d="M1754.591,1251.284c0,0 100.065,8.124 154.338,109.27c54.273,101.146 75.248,141.74 94.774,178.101c12.975,24.163 40.916,77.167 78.016,109.002c34.072,29.237 86.269,51.206 160.604,51.576c80.638,0.402 141.649,-18.642 190.234,-69.283c35.082,-36.567 63.505,-109.82 68.045,-172.106c9.058,-124.272 -19.882,-320.129 -39.345,-423.259c-15.217,-80.633 -52.56,-243.166 -90.005,-360.457c-16.237,-50.861 -38.595,-123.571 -66.604,-194.987c-36.584,-93.279 -76.821,-181.488 -76.821,-181.488c0,0 -44.087,7.159 -39.496,65.29c3.421,43.318 5.043,65.314 8.03,96.427c3.655,38.077 4.216,75.896 -28.274,132.7c-42.707,74.67 -95.31,168.064 -144.237,250.87c-65.544,110.93 -136.236,235.693 -269.26,408.344Z" style="fill:rgb(163,0,0);"/></g><path d="M440.024,679.813c53.802,0 67.516,-41.67 67.516,-93.889c0,-51.692 -14.505,-88.615 -67.516,-88.615l-65.142,0l0,182.504l65.142,0Zm46.681,-93.889c0,39.56 -8.703,75.955 -46.681,75.955l-44.835,0l0,-146.636l44.835,0c37.978,0 46.681,31.121 46.681,70.681Z" style="fill:white;fill-rule:nonzero;"/><rect x="544.99" y="497.309" width="20.308" height="182.504" style="fill:white;fill-rule:nonzero;"/><path d="M714.044,499.683c0,0 -33.494,-5.275 -55.12,-5.275c-35.604,0 -58.813,13.714 -58.813,49.055c0,34.813 18.989,43.78 56.703,51.956c29.802,5.802 40.615,11.604 40.615,32.176c0,25.318 -13.187,36.659 -39.033,36.659c-18.725,0 -54.593,-4.747 -54.593,-4.747l-2.11,16.879c0,0 36.132,5.802 57.758,5.802c36.132,0 58.285,-15.824 58.285,-56.175c0,-31.912 -16.088,-40.879 -52.483,-49.055c-31.912,-7.121 -44.571,-11.077 -44.571,-34.813c0,-20.571 13.714,-29.802 39.56,-29.802c15.297,0 51.956,4.483 51.956,4.483l1.846,-17.143Z" style="fill:white;fill-rule:nonzero;"/><path d="M862.263,659.506c-12.659,2.374 -32.176,4.747 -46.945,4.747c-41.67,0 -48.263,-24.264 -48.263,-75.164c0,-51.956 7.121,-76.219 47.736,-76.219c14.242,0 35.604,2.637 47.472,4.747l0.791,-17.143c-11.604,-2.374 -31.648,-5.802 -50.373,-5.802c-54.857,0 -66.725,32.703 -66.725,94.417c0,60.131 12.132,93.362 66.725,93.362c17.406,0 37.45,-2.901 50.373,-5.538l-0.791,-17.406Z" style="fill:white;fill-rule:nonzero;"/><path d="M957.998,664.517c-42.197,0 -51.164,-25.318 -51.164,-75.164c0,-49.582 9.231,-76.747 51.164,-76.747c41.67,0 51.164,27.428 51.164,76.747c0,51.428 -8.703,75.164 -51.164,75.164Zm0,17.934c56.703,0 72.263,-30.329 72.263,-93.098c0,-60.659 -15.824,-94.681 -72.263,-94.681c-56.439,0 -71.999,34.549 -71.999,94.681c0,61.186 15.297,93.098 71.999,93.098Z" style="fill:white;fill-rule:nonzero;"/><path d="M1067.448,679.813l20.308,0l0,-164.57l5.011,0l70.945,164.57l37.187,0l0,-182.504l-20.044,0l0,164.57l-5.538,0l-69.89,-164.57l-37.978,0l0,182.504Z" style="fill:white;fill-rule:nonzero;"/><path d="M1245.733,679.813l20.308,0l0,-164.57l5.011,0l70.945,164.57l37.187,0l0,-182.504l-20.044,0l0,164.57l-5.538,0l-69.89,-164.57l-37.978,0l0,182.504Z" style="fill:white;fill-rule:nonzero;"/><path d="M1424.017,679.813l111.032,0l0,-17.934l-90.725,0l0,-65.934l74.901,0l0,-17.67l-74.901,0l0,-63.033l90.725,0l0,-17.934l-111.032,0l0,182.504Z" style="fill:white;fill-rule:nonzero;"/><path d="M1677.202,659.506c-12.659,2.374 -32.176,4.747 -46.945,4.747c-41.67,0 -48.263,-24.264 -48.263,-75.164c0,-51.956 7.121,-76.219 47.736,-76.219c14.242,0 35.604,2.637 47.472,4.747l0.791,-17.143c-11.604,-2.374 -31.648,-5.802 -50.373,-5.802c-54.857,0 -66.725,32.703 -66.725,94.417c0,60.131 12.132,93.362 66.725,93.362c17.406,0 37.45,-2.901 50.373,-5.538l-0.791,-17.406Z" style="fill:white;fill-rule:nonzero;"/><path d="M1692.235,515.507l56.175,0l0,164.307l20.044,0l0,-164.307l55.648,0l0,-18.198l-131.867,0l0,18.198Z" style="fill:white;fill-rule:nonzero;"/><path d="M1849.948,679.813l111.032,0l0,-17.934l-90.725,0l0,-65.934l74.901,0l0,-17.67l-74.901,0l0,-63.033l90.725,0l0,-17.934l-111.032,0l0,182.504Z" style="fill:white;fill-rule:nonzero;"/><path d="M2060.936,679.813c53.802,0 67.516,-41.67 67.516,-93.889c0,-51.692 -14.505,-88.615 -67.516,-88.615l-65.142,0l0,182.504l65.142,0Zm46.681,-93.889c0,39.56 -8.703,75.955 -46.681,75.955l-44.835,0l0,-146.636l44.835,0c37.978,0 46.681,31.121 46.681,70.681Z" style="fill:white;fill-rule:nonzero;"/></svg>