<?xml version="1.0" encoding="UTF-8" standalone="no"?><!DOCTYPE svg PUBLIC "-//W3C//DTD SVG 1.1//EN" "http://www.w3.org/Graphics/SVG/1.1/DTD/svg11.dtd"><svg width="100%" height="100%" viewBox="0 0 262 185" version="1.1" xmlns="http://www.w3.org/2000/svg" xmlns:xlink="http://www.w3.org/1999/xlink" xml:space="preserve" xmlns:serif="http://www.serif.com/" style="fill-rule:evenodd;clip-rule:evenodd;stroke-linejoin:round;stroke-miterlimit:2;"><path id="Down" d="M130.667,0l130.667,130.667c-1.506,1.506 -2.99,2.943 -4.496,4.311c-1.46,1.414 -2.943,2.758 -4.45,4.033c-1.483,1.298 -2.92,2.503 -4.357,3.708c-1.46,1.182 -2.874,2.318 -4.288,3.407c-1.437,1.112 -2.851,2.155 -4.288,3.221c-1.46,1.043 -2.897,2.063 -4.38,3.082c-1.483,1.02 -3.013,2.039 -4.566,3.036c-1.553,0.997 -3.175,2.016 -4.867,3.013c-1.669,1.02 -3.407,2.016 -5.238,3.059c-1.854,1.02 -3.824,2.063 -5.91,3.129c-2.086,1.112 -4.357,2.179 -6.791,3.268c-2.387,1.136 -4.983,2.248 -7.741,3.337c-2.758,1.136 -5.655,2.225 -8.645,3.268c-2.99,1.043 -6.049,2.016 -9.131,2.92c-3.106,0.881 -6.211,1.715 -9.502,2.457c-3.268,0.765 -6.652,1.46 -10.267,2.109c-3.569,0.649 -7.347,1.182 -11.356,1.622c-3.963,0.44 -8.135,0.765 -12.399,0.95c-4.218,0.185 -8.482,0.232 -12.724,0.116c-4.288,-0.116 -8.529,-0.371 -12.77,-0.765c-4.218,-0.417 -8.459,-0.95 -12.631,-1.646c-4.218,-0.695 -8.39,-1.53 -12.538,-2.526c-4.125,-0.973 -8.228,-2.109 -12.307,-3.361c-4.033,-1.252 -8.065,-2.688 -12.028,-4.195c-3.963,-1.553 -7.857,-3.221 -11.704,-5.029c-3.801,-1.808 -7.602,-3.755 -11.31,-5.84c-3.731,-2.063 -7.37,-4.264 -10.962,-6.605c-3.569,-2.318 -7.069,-4.797 -10.476,-7.37c-3.407,-2.573 -6.698,-5.261 -9.919,-8.065c-3.198,-2.781 -6.281,-5.632 -9.294,-8.645l130.667,-130.667Z" style="fill:#e6e6e6;fill-rule:nonzero;"/><path id="Down1" serif:id="Down" d="M130.667,159.637c-1.019,0 -2.071,-0.17 -3.022,-0.475c-0.917,-0.306 -1.766,-0.747 -2.547,-1.29c-0.781,-0.543 -1.46,-1.189 -2.071,-1.936c-0.611,-0.781 -1.121,-1.698 -1.46,-2.649c-0.374,-0.985 -0.577,-2.004 -0.611,-3.022c-0.034,-1.053 0.102,-2.105 0.374,-3.09c0.306,-1.019 0.781,-1.97 1.358,-2.819c0.611,-0.849 1.324,-1.596 2.173,-2.241c0.815,-0.611 1.732,-1.087 2.751,-1.426c0.985,-0.34 2.037,-0.509 3.056,-0.509c0.577,0.034 1.155,0.068 1.732,0.17c0.509,0.102 1.019,0.204 1.494,0.407c0.475,0.136 0.883,0.34 1.324,0.543c0.407,0.238 0.781,0.475 1.155,0.747c0.407,0.272 0.747,0.577 1.087,0.883c0.34,0.34 0.645,0.679 0.917,1.053c0.272,0.374 0.543,0.747 0.781,1.155c0.204,0.374 0.407,0.781 0.577,1.222c0.136,0.374 0.272,0.815 0.374,1.222c0.102,0.374 0.17,0.781 0.204,1.155c0.068,0.407 0.068,0.781 0.068,1.155c0,0.611 -0.034,1.256 -0.17,1.834c-0.102,0.543 -0.238,1.087 -0.441,1.596c-0.17,0.475 -0.374,0.917 -0.611,1.358c-0.238,0.441 -0.509,0.815 -0.815,1.189c-0.272,0.374 -0.577,0.713 -0.883,1.019c-0.306,0.306 -0.611,0.577 -0.951,0.815c-0.306,0.238 -0.645,0.441 -0.951,0.611c-0.306,0.204 -0.611,0.34 -0.951,0.475c-0.306,0.136 -0.611,0.272 -0.917,0.374c-0.306,0.102 -0.645,0.17 -0.951,0.238c-0.306,0.068 -0.645,0.136 -0.985,0.17c-0.34,0.034 -0.713,0.068 -1.087,0.068" style="fill:#cbcbcb;fill-rule:nonzero;"/></svg>