<?xml version="1.0" encoding="UTF-8" standalone="no"?><!DOCTYPE svg PUBLIC "-//W3C//DTD SVG 1.1//EN" "http://www.w3.org/Graphics/SVG/1.1/DTD/svg11.dtd"><svg width="100%" height="100%" viewBox="0 0 185 262" version="1.1" xmlns="http://www.w3.org/2000/svg" xmlns:xlink="http://www.w3.org/1999/xlink" xml:space="preserve" xmlns:serif="http://www.serif.com/" style="fill-rule:evenodd;clip-rule:evenodd;stroke-linejoin:round;stroke-miterlimit:2;"><path id="Left" d="M184.777,130.667l-130.667,130.667c-1.506,-1.506 -2.943,-2.99 -4.311,-4.496c-1.414,-1.46 -2.758,-2.943 -4.033,-4.45c-1.298,-1.483 -2.503,-2.92 -3.708,-4.357c-1.182,-1.46 -2.318,-2.874 -3.407,-4.288c-1.112,-1.437 -2.155,-2.851 -3.221,-4.288c-1.043,-1.46 -2.063,-2.897 -3.082,-4.38c-1.02,-1.483 -2.039,-3.013 -3.036,-4.566c-0.997,-1.553 -2.016,-3.175 -3.013,-4.867c-1.02,-1.669 -2.016,-3.407 -3.059,-5.238c-1.02,-1.854 -2.063,-3.824 -3.129,-5.91c-1.112,-2.086 -2.179,-4.357 -3.268,-6.791c-1.136,-2.387 -2.248,-4.983 -3.337,-7.741c-1.136,-2.758 -2.225,-5.655 -3.268,-8.645c-1.043,-2.99 -2.016,-6.049 -2.92,-9.131c-0.881,-3.106 -1.715,-6.211 -2.457,-9.502c-0.765,-3.268 -1.46,-6.652 -2.109,-10.267c-0.649,-3.569 -1.182,-7.347 -1.622,-11.356c-0.44,-3.963 -0.765,-8.135 -0.95,-12.399c-0.185,-4.218 -0.232,-8.482 -0.116,-12.724c0.116,-4.288 0.371,-8.529 0.765,-12.77c0.417,-4.218 0.95,-8.459 1.646,-12.631c0.695,-4.218 1.53,-8.39 2.526,-12.538c0.973,-4.125 2.109,-8.228 3.361,-12.307c1.252,-4.033 2.688,-8.065 4.195,-12.028c1.553,-3.963 3.221,-7.857 5.029,-11.704c1.808,-3.801 3.755,-7.602 5.84,-11.31c2.063,-3.731 4.264,-7.37 6.605,-10.962c2.318,-3.569 4.797,-7.069 7.37,-10.476c2.573,-3.407 5.261,-6.698 8.065,-9.919c2.781,-3.198 5.632,-6.281 8.645,-9.294l130.667,130.667Z" style="fill:#e6e6e6;fill-rule:nonzero;"/><path id="Left1" serif:id="Left" d="M24.953,130.361c0,-0.985 0.136,-2.004 0.441,-2.954c0.272,-0.883 0.679,-1.732 1.222,-2.513c0.509,-0.781 1.121,-1.46 1.834,-2.071c0.781,-0.611 1.596,-1.121 2.513,-1.494c0.917,-0.374 1.868,-0.611 2.852,-0.679c0.985,-0.102 1.97,-0.034 2.92,0.17c0.985,0.204 1.902,0.577 2.751,1.053c0.849,0.509 1.63,1.121 2.309,1.8c0.611,0.679 1.155,1.426 1.562,2.241c0.374,0.713 0.645,1.494 0.815,2.275c0.17,0.747 0.272,1.494 0.272,2.241c-0.034,0.985 -0.17,1.902 -0.441,2.785c-0.272,0.849 -0.611,1.63 -1.087,2.377c-0.475,0.713 -1.053,1.392 -1.698,2.004c-0.679,0.611 -1.426,1.121 -2.275,1.494c-0.815,0.407 -1.732,0.679 -2.513,0.849c-0.815,0.136 -1.528,0.17 -2.309,0.102c-0.747,-0.034 -1.562,-0.17 -2.343,-0.407c-0.781,-0.272 -1.562,-0.611 -2.275,-1.087c-0.713,-0.441 -1.358,-0.985 -1.902,-1.562c-0.543,-0.577 -0.985,-1.155 -1.358,-1.834c-0.374,-0.645 -0.679,-1.358 -0.917,-2.173c-0.238,-0.781 -0.374,-1.664 -0.374,-2.615Z" style="fill:#cbcbcb;fill-rule:nonzero;"/></svg>