<?xml version="1.0" encoding="UTF-8" standalone="no"?><!DOCTYPE svg PUBLIC "-//W3C//DTD SVG 1.1//EN" "http://www.w3.org/Graphics/SVG/1.1/DTD/svg11.dtd"><svg width="100%" height="100%" viewBox="0 0 169 169" version="1.1" xmlns="http://www.w3.org/2000/svg" xmlns:xlink="http://www.w3.org/1999/xlink" xml:space="preserve" xmlns:serif="http://www.serif.com/" style="fill-rule:evenodd;clip-rule:evenodd;stroke-linejoin:round;stroke-miterlimit:2;"><path id="Logo-Button" serif:id="Logo Button" d="M0,84.395c0,46.579 37.816,84.395 84.395,84.395c46.579,0 84.395,-37.816 84.395,-84.395c0,-46.579 -37.816,-84.395 -84.395,-84.395c-46.579,0 -84.395,37.816 -84.395,84.395Z" style="fill:#e6e6e6;"/><path id="Logo" d="M151.173,135.264c-0.102,0.136 -0.272,0.204 -0.441,0.136c-0.17,-0.102 -0.17,-0.272 -0.102,-0.441c6.418,-19.798 -26.317,-67.746 -43.229,-87.883c-0.034,-0.034 -0.102,-0.136 -0.102,-0.136c0,-0.204 0.068,-0.306 0.136,-0.374c25.604,-25.469 34.298,-22.752 35.724,-22.039c0.136,0.068 0.272,0.17 0.374,0.272c15.315,15.213 24.823,36.301 24.823,59.596c0,19.118 -6.418,36.743 -17.183,50.869m-11.512,12.327c-14.772,12.904 -34.094,20.748 -55.284,20.748c-21.156,0 -40.478,-7.844 -55.25,-20.748c-13.108,-13.345 29.883,-60.581 54.978,-79.699l0.204,-0.102c0,0 0.306,0.068 0.374,0.102c25.095,19.118 68.086,66.354 54.978,79.699m-121.604,-12.191c-0.17,0.068 -0.34,0 -0.441,-0.136c-10.765,-14.127 -17.183,-31.751 -17.183,-50.869c0,-23.295 9.508,-44.383 24.823,-59.596c0.102,-0.102 0.238,-0.204 0.374,-0.272c1.426,-0.713 10.086,-3.43 35.724,22.039c0.068,0.068 0.136,0.17 0.136,0.272c0,0 -0.068,0.204 -0.136,0.238c-16.877,20.137 -49.613,68.086 -43.195,87.883c0.034,0.17 0.034,0.34 -0.102,0.441m22.616,-122.656c12.836,-7.675 26.759,-12.293 43.704,-12.293c16.945,0 30.902,4.618 43.738,12.293c0.17,0.068 0.204,0.238 0.136,0.407c-0.068,0.136 -0.238,0.17 -0.407,0.136c-16.232,-3.532 -40.919,10.527 -43.262,11.953c-0.068,0.034 -0.102,0.034 -0.102,0.034c0,0 -0.204,0 -0.272,-0.034c-2.343,-1.426 -27.031,-15.485 -43.262,-11.953c-0.17,0.034 -0.374,0 -0.407,-0.136c-0.068,-0.17 -0.034,-0.34 0.136,-0.407" style="fill:#f2f2f2;fill-rule:nonzero;"/></svg>