<?xml version="1.0" encoding="UTF-8" standalone="no"?><!DOCTYPE svg PUBLIC "-//W3C//DTD SVG 1.1//EN" "http://www.w3.org/Graphics/SVG/1.1/DTD/svg11.dtd"><svg width="100%" height="100%" viewBox="0 0 185 262" version="1.1" xmlns="http://www.w3.org/2000/svg" xmlns:xlink="http://www.w3.org/1999/xlink" xml:space="preserve" xmlns:serif="http://www.serif.com/" style="fill-rule:evenodd;clip-rule:evenodd;stroke-linejoin:round;stroke-miterlimit:2;"><path id="Right" d="M0,130.667l130.667,-130.667c1.506,1.506 2.943,2.99 4.311,4.496c1.414,1.46 2.758,2.943 4.033,4.45c1.298,1.483 2.503,2.92 3.708,4.357c1.182,1.46 2.318,2.874 3.407,4.288c1.112,1.437 2.155,2.851 3.221,4.288c1.043,1.46 2.063,2.897 3.082,4.38c1.02,1.483 2.039,3.013 3.036,4.566c0.997,1.553 2.016,3.175 3.013,4.867c1.02,1.669 2.016,3.407 3.059,5.238c1.02,1.854 2.063,3.824 3.129,5.91c1.112,2.086 2.179,4.357 3.268,6.791c1.136,2.387 2.248,4.983 3.337,7.741c1.136,2.758 2.225,5.655 3.268,8.645c1.043,2.99 2.016,6.049 2.92,9.131c0.881,3.106 1.715,6.211 2.457,9.502c0.765,3.268 1.46,6.652 2.109,10.267c0.649,3.569 1.182,7.347 1.622,11.356c0.44,3.963 0.765,8.135 0.95,12.399c0.185,4.218 0.232,8.482 0.116,12.724c-0.116,4.288 -0.371,8.529 -0.765,12.77c-0.417,4.218 -0.95,8.459 -1.646,12.631c-0.695,4.218 -1.53,8.39 -2.526,12.538c-0.973,4.125 -2.109,8.228 -3.361,12.307c-1.252,4.033 -2.688,8.065 -4.195,12.028c-1.553,3.963 -3.221,7.857 -5.029,11.704c-1.808,3.801 -3.755,7.602 -5.84,11.31c-2.063,3.731 -4.264,7.37 -6.605,10.962c-2.318,3.569 -4.797,7.069 -7.37,10.476c-2.573,3.407 -5.261,6.698 -8.065,9.919c-2.781,3.198 -5.632,6.281 -8.645,9.294l-130.667,-130.667Z" style="fill:#e6e6e6;fill-rule:nonzero;"/><path id="Right1" serif:id="Right" d="M140.376,130.701c0,-0.543 0.034,-1.121 0.136,-1.664c0.068,-0.509 0.204,-0.985 0.374,-1.46c0.136,-0.407 0.306,-0.815 0.475,-1.222c0.204,-0.374 0.407,-0.747 0.611,-1.087c0.238,-0.306 0.475,-0.611 0.713,-0.917c0.238,-0.272 0.475,-0.543 0.747,-0.781c0.238,-0.238 0.475,-0.441 0.747,-0.645c0.272,-0.204 0.543,-0.407 0.815,-0.577c0.306,-0.17 0.611,-0.34 0.917,-0.509c0.374,-0.17 0.713,-0.306 1.087,-0.441c0.407,-0.136 0.849,-0.238 1.256,-0.34c0.475,-0.068 0.951,-0.136 1.426,-0.17c0.543,-0.034 1.087,0 1.63,0.068c0.577,0.068 1.189,0.204 1.732,0.374c0.679,0.204 1.29,0.475 1.868,0.815c0.679,0.374 1.29,0.815 1.868,1.358c0.611,0.577 1.189,1.256 1.63,1.97c0.475,0.781 0.849,1.63 1.087,2.513c0.238,0.883 0.374,1.8 0.374,2.683c-0.034,1.019 -0.204,2.004 -0.509,2.954c-0.272,0.883 -0.679,1.698 -1.189,2.479c-0.509,0.713 -1.121,1.392 -1.8,1.97c-0.747,0.611 -1.562,1.121 -2.445,1.494c-0.883,0.374 -1.868,0.645 -2.819,0.747c-0.985,0.102 -1.97,0.034 -2.92,-0.136c-0.985,-0.204 -1.902,-0.543 -2.751,-1.019c-0.849,-0.441 -1.63,-1.019 -2.309,-1.732c-0.645,-0.645 -1.189,-1.426 -1.63,-2.241c-0.374,-0.713 -0.679,-1.494 -0.849,-2.275c-0.17,-0.747 -0.272,-1.46 -0.272,-2.207Z" style="fill:#cbcbcb;fill-rule:nonzero;"/></svg>