<?xml version="1.0" encoding="UTF-8" standalone="no"?><!DOCTYPE svg PUBLIC "-//W3C//DTD SVG 1.1//EN" "http://www.w3.org/Graphics/SVG/1.1/DTD/svg11.dtd"><svg width="100%" height="100%" viewBox="0 0 118 118" version="1.1" xmlns="http://www.w3.org/2000/svg" xmlns:xlink="http://www.w3.org/1999/xlink" xml:space="preserve" xmlns:serif="http://www.serif.com/" style="fill-rule:evenodd;clip-rule:evenodd;stroke-linecap:round;stroke-linejoin:round;stroke-miterlimit:10;"><path id="Select-Button" serif:id="Select Button" d="M2.778,58.944c0,30.999 25.167,56.167 56.167,56.167c30.999,0 56.167,-25.167 56.167,-56.167c0,-30.999 -25.167,-56.167 -56.167,-56.167c-30.999,0 -56.167,25.167 -56.167,56.167Z" style="fill:#e6e6e6;stroke:#050505;stroke-width:5.56px;"/><g id="Select"><path d="M56.025,78.375l25.65,0l0,-19.839l-25.65,0l0,19.839Zm30.42,4.809l-35.189,0l0,-29.378l35.189,0l0,29.378Z" style="fill:#818181;fill-rule:nonzero;"/><path d="M40.551,64.347l-9.138,0l0,-29.337l35.189,0l0,9.178l-4.729,0l0,-4.449l-25.69,0l0,19.839l4.369,0l0,4.769Z" style="fill:#818181;fill-rule:nonzero;"/></g></svg>