<?xml version="1.0" encoding="UTF-8" standalone="no"?><!DOCTYPE svg PUBLIC "-//W3C//DTD SVG 1.1//EN" "http://www.w3.org/Graphics/SVG/1.1/DTD/svg11.dtd"><svg width="100%" height="100%" viewBox="0 0 262 185" version="1.1" xmlns="http://www.w3.org/2000/svg" xmlns:xlink="http://www.w3.org/1999/xlink" xml:space="preserve" xmlns:serif="http://www.serif.com/" style="fill-rule:evenodd;clip-rule:evenodd;stroke-linejoin:round;stroke-miterlimit:2;"><path id="Up" d="M130.667,184.777l-130.667,-130.667c1.506,-1.506 2.99,-2.943 4.496,-4.311c1.46,-1.414 2.943,-2.758 4.45,-4.033c1.483,-1.298 2.92,-2.503 4.357,-3.708c1.46,-1.182 2.874,-2.318 4.288,-3.407c1.437,-1.112 2.851,-2.155 4.288,-3.221c1.46,-1.043 2.897,-2.063 4.38,-3.082c1.483,-1.02 3.013,-2.039 4.566,-3.036c1.553,-0.997 3.175,-2.016 4.867,-3.013c1.669,-1.02 3.407,-2.016 5.238,-3.059c1.854,-1.02 3.824,-2.063 5.91,-3.129c2.086,-1.112 4.357,-2.179 6.791,-3.268c2.387,-1.136 4.983,-2.248 7.741,-3.337c2.758,-1.136 5.655,-2.225 8.645,-3.268c2.99,-1.043 6.049,-2.016 9.131,-2.92c3.106,-0.881 6.211,-1.715 9.502,-2.457c3.268,-0.765 6.652,-1.46 10.267,-2.109c3.569,-0.649 7.347,-1.182 11.356,-1.622c3.963,-0.44 8.135,-0.765 12.399,-0.95c4.218,-0.185 8.482,-0.232 12.724,-0.116c4.288,0.116 8.529,0.371 12.77,0.765c4.218,0.417 8.459,0.95 12.631,1.646c4.218,0.695 8.39,1.53 12.538,2.526c4.125,0.973 8.228,2.109 12.307,3.361c4.033,1.252 8.065,2.688 12.028,4.195c3.963,1.553 7.857,3.221 11.704,5.029c3.801,1.808 7.602,3.755 11.31,5.84c3.731,2.063 7.37,4.264 10.962,6.605c3.569,2.318 7.069,4.797 10.476,7.37c3.407,2.573 6.698,5.261 9.919,8.065c3.198,2.781 6.281,5.632 9.294,8.645l-130.667,130.667Z" style="fill:#e6e6e6;fill-rule:nonzero;"/><path id="Up1" serif:id="Up" d="M130.701,44.225c0.34,0 0.713,-0.034 1.053,-0.068c0.34,-0.034 0.645,-0.068 0.985,-0.136c0.306,-0.068 0.577,-0.17 0.883,-0.272c0.306,-0.068 0.611,-0.204 0.917,-0.306c0.272,-0.136 0.577,-0.306 0.883,-0.441c0.272,-0.17 0.577,-0.374 0.849,-0.577c0.306,-0.204 0.577,-0.407 0.849,-0.645c0.272,-0.272 0.543,-0.509 0.781,-0.781c0.238,-0.306 0.475,-0.577 0.713,-0.883c0.204,-0.306 0.374,-0.611 0.543,-0.917c0.17,-0.306 0.306,-0.577 0.441,-0.883c0.136,-0.306 0.238,-0.577 0.34,-0.849c0.068,-0.306 0.17,-0.577 0.238,-0.883c0.068,-0.306 0.102,-0.611 0.136,-0.951c0.068,-0.34 0.068,-0.713 0.102,-1.053c0,-0.374 -0.034,-0.747 -0.068,-1.121c-0.034,-0.306 -0.068,-0.645 -0.136,-0.985c-0.068,-0.306 -0.136,-0.611 -0.238,-0.951c-0.102,-0.306 -0.238,-0.611 -0.34,-0.917c-0.17,-0.34 -0.306,-0.679 -0.475,-0.985c-0.204,-0.34 -0.407,-0.645 -0.645,-0.951c-0.238,-0.34 -0.509,-0.679 -0.781,-0.985c-0.306,-0.306 -0.645,-0.611 -0.985,-0.917c-0.374,-0.272 -0.781,-0.543 -1.189,-0.781c-0.441,-0.272 -0.883,-0.475 -1.358,-0.679c-0.509,-0.204 -1.053,-0.374 -1.596,-0.475c-0.645,-0.102 -1.256,-0.17 -1.902,-0.17l-0.068,0c-0.951,0 -1.936,0.136 -2.852,0.441c-0.951,0.306 -1.868,0.747 -2.649,1.29c-0.849,0.577 -1.562,1.29 -2.173,2.105c-0.611,0.781 -1.087,1.664 -1.426,2.615c-0.306,0.883 -0.509,1.8 -0.577,2.751c-0.034,0.883 0.034,1.732 0.204,2.581c0.17,0.781 0.407,1.528 0.747,2.241c0.306,0.645 0.713,1.256 1.155,1.834c0.407,0.543 0.883,1.019 1.426,1.46c0.475,0.407 1.053,0.781 1.63,1.087c0.611,0.34 1.29,0.611 2.004,0.815c0.815,0.238 1.664,0.34 2.513,0.34" style="fill:#cbcbcb;fill-rule:nonzero;"/></svg>