<?xml version="1.0" encoding="UTF-8" standalone="no"?><!DOCTYPE svg PUBLIC "-//W3C//DTD SVG 1.1//EN" "http://www.w3.org/Graphics/SVG/1.1/DTD/svg11.dtd"><svg width="100%" height="100%" viewBox="0 0 279 198" version="1.1" xmlns="http://www.w3.org/2000/svg" xmlns:xlink="http://www.w3.org/1999/xlink" xml:space="preserve" xmlns:serif="http://www.serif.com/" style="fill-rule:evenodd;clip-rule:evenodd;stroke-linejoin:round;stroke-miterlimit:2;"><g id="Down"><path id="_8" serif:id="8" d="M73.027,185.82l-61.556,-46.416l61.556,-72.942l66.462,-56.655l66.462,56.655l61.844,74.002l-61.844,45.346c-5.171,1.845 -10.413,3.479 -15.726,4.886c-8.248,2.202 -16.706,3.88 -25.199,4.998c-8.493,1.118 -17.056,1.678 -25.549,1.678c-4.613,0 -9.157,-0.175 -13.736,-0.489c-4.544,-0.315 -9.122,-0.804 -13.666,-1.433c-4.579,-0.664 -9.157,-1.468 -13.666,-2.412c-4.509,-0.979 -9.017,-2.097 -13.456,-3.355c-4.025,-1.182 -7.992,-2.451 -11.926,-3.862Z" style="fill:rgb(230,230,230);fill-rule:nonzero;"/><path id="_9" serif:id="9" d="M205.951,185.81l0,-119.348l73.039,73.039c-0.066,0.067 -0.133,0.135 -0.2,0.202c-6.116,6.081 -12.617,11.778 -19.468,17.021c-6.85,5.243 -14.05,10.066 -21.53,14.365c-7.479,4.299 -15.204,8.109 -23.137,11.394c-2.879,1.174 -5.78,2.285 -8.705,3.328Z" style="fill:rgb(217,217,217);fill-rule:nonzero;"/><path id="_7" serif:id="7" d="M-0,139.489l73.027,-73.027l0,119.358c-0.37,-0.133 -0.74,-0.267 -1.11,-0.402c-4.299,-1.573 -8.528,-3.285 -12.722,-5.138c-4.124,-1.852 -8.248,-3.88 -12.303,-6.012c-4.019,-2.167 -8.039,-4.474 -11.918,-6.92c-3.914,-2.447 -7.759,-5.033 -11.464,-7.724c-3.74,-2.726 -7.34,-5.557 -10.87,-8.493c-3.46,-2.936 -6.815,-5.977 -10.101,-9.157c-0.856,-0.82 -1.702,-1.649 -2.54,-2.486Z" style="fill:rgb(242,242,242);fill-rule:nonzero;"/><path id="_5" serif:id="5" d="M139.489,0l66.462,66.462l-132.924,0l66.462,-66.462Z" style="fill:rgb(217,217,217);"/></g></svg>