<?xml version="1.0" encoding="UTF-8" standalone="no"?><!DOCTYPE svg PUBLIC "-//W3C//DTD SVG 1.1//EN" "http://www.w3.org/Graphics/SVG/1.1/DTD/svg11.dtd"><svg width="100%" height="100%" viewBox="0 0 198 279" version="1.1" xmlns="http://www.w3.org/2000/svg" xmlns:xlink="http://www.w3.org/1999/xlink" xml:space="preserve" xmlns:serif="http://www.serif.com/" style="fill-rule:evenodd;clip-rule:evenodd;stroke-linejoin:round;stroke-miterlimit:2;"><g id="Right"><path id="_6" serif:id="6" d="M197.039,139.501c0,8.493 -0.594,17.056 -1.678,25.549c-1.118,8.528 -2.796,17.021 -5.033,25.339c-1.364,5.152 -2.942,10.237 -4.726,15.254l-44.525,53.609l-74.616,-53.609l-50.231,-66.142l50.231,-66.781l72.138,-56.538l46.768,56.538c1.91,5.293 3.59,10.66 5.03,16.103c2.202,8.283 3.88,16.706 4.963,25.199c1.083,8.458 1.678,16.986 1.678,25.479Z" style="fill:rgb(204,204,204);fill-rule:nonzero;"/><path id="_9" serif:id="9" d="M139.5,278.682l-73.039,-73.039l119.141,-0c-1.097,3.084 -2.271,6.143 -3.522,9.176c-3.285,7.969 -7.13,15.728 -11.429,23.172c-4.299,7.444 -9.087,14.644 -14.33,21.46c-5.185,6.775 -10.848,13.174 -16.821,19.23Z" style="fill:rgb(217,217,217);fill-rule:nonzero;"/><path id="_5" serif:id="5" d="M66.462,72.72l0,132.924l-66.462,-66.462l66.462,-66.462Z" style="fill:rgb(217,217,217);"/><path id="_3" serif:id="3" d="M185.368,72.72l-118.907,-0l72.72,-72.72c0.063,0.063 0.126,0.125 0.189,0.188c6.046,6.116 11.778,12.617 17.021,19.468c5.243,6.85 10.031,14.015 14.33,21.495c4.299,7.479 8.109,15.273 11.429,23.242c1.136,2.755 2.209,5.531 3.218,8.328Z" style="fill:rgb(191,191,191);fill-rule:nonzero;"/></g></svg>